<svg width="149" height="74" viewBox="0 0 149 74" fill="none" xmlns="http://www.w3.org/2000/svg">
<g id="Group">
<path id="Vector" fill-rule="evenodd" clip-rule="evenodd" d="M39.4027 55.0358C39.8409 54.3964 40.7174 54.2293 41.3674 54.6652C42.0101 55.1012 42.1781 55.9732 41.7399 56.6199L36.642 64.0389C36.3717 64.4386 35.9262 64.6493 35.4734 64.6493H17.4263C16.6448 64.6493 16.0094 64.0171 16.0094 63.2396C16.0094 62.9199 16.119 62.6219 16.3016 62.3822L25.1023 49.2082C24.9563 49.2227 24.8102 49.2372 24.6714 49.2518C24.2186 49.2881 23.7585 49.3099 23.3057 49.3099C19.8292 49.3099 16.6521 48.6777 13.7672 47.4206C12.3357 46.7957 11.0065 46.0545 9.77947 45.1971C8.55247 44.3397 7.42772 43.3732 6.40522 42.2833C5.37542 41.1933 4.46978 40.0089 3.6883 38.7373C2.89951 37.4584 2.23489 36.085 1.67252 34.6172C1.11014 33.1349 0.693838 31.6162 0.416303 30.0612C0.138768 28.4916 0 26.8858 0 25.2363C0 23.3543 0.182589 21.5522 0.540464 19.8156C0.898338 18.0789 1.4388 16.4294 2.15455 14.8817C2.8703 13.3412 3.71021 11.9097 4.68889 10.58C5.66756 9.2502 6.77771 8.02944 8.01201 6.91768C9.24631 5.82046 10.5902 4.83949 12.0509 3.98206C13.4897 3.13189 15.0453 2.40525 16.7106 1.80213C18.3685 1.19902 20.0994 0.748505 21.8888 0.450582C23.6855 0.152659 25.5406 6.48817e-05 27.4468 6.48817e-05C31.2154 -0.00720152 34.7723 0.59591 38.1246 1.79487C39.8044 2.39798 41.3674 3.12462 42.8208 3.97479C44.2961 4.83949 45.6473 5.82046 46.8743 6.92495C47.4512 7.44086 47.5024 8.33463 46.9765 8.90868C46.4507 9.48272 45.5596 9.53359 44.9826 9.01041C43.8798 8.02218 42.682 7.14294 41.3966 6.3945C40.0893 5.62426 38.6797 4.97029 37.1751 4.43257C34.1515 3.34988 30.9087 2.8049 27.4468 2.8049C25.672 2.8049 23.9776 2.94296 22.3562 3.21182C20.7275 3.48067 19.1719 3.89486 17.6746 4.43257C16.1847 4.97029 14.7897 5.62426 13.4897 6.3945C12.2043 7.15747 11.0065 8.02944 9.91093 9.01041C8.8154 9.99137 7.83672 11.0741 6.9749 12.244C6.11308 13.4139 5.36082 14.6927 4.7254 16.0588C4.08999 17.4322 3.61526 18.8637 3.30121 20.3823C2.98716 21.901 2.82648 23.5214 2.82648 25.2436C2.82648 26.7332 2.95064 28.1792 3.19896 29.5743C3.44728 30.9768 3.81976 32.3283 4.3091 33.629C4.80574 34.9369 5.39733 36.1504 6.09117 37.2767C6.78501 38.403 7.57379 39.4421 8.45022 40.3722C9.33395 41.3096 10.3126 42.1525 11.3863 42.9009C12.4599 43.6494 13.6211 44.2961 14.892 44.8483C17.4044 45.9455 20.2017 46.4905 23.2984 46.4905C23.7001 46.4905 24.0798 46.476 24.445 46.4469C24.8248 46.4179 25.19 46.3743 25.5333 46.3161C25.9203 46.2507 26.3001 46.1781 26.6653 46.1054C27.0159 46.0327 27.3884 45.9455 27.7901 45.8438C28.1625 45.7494 28.5715 45.8075 28.9148 46.04C29.5648 46.4687 29.7401 47.3407 29.3092 47.9874L20.0629 61.8372H34.7284L39.4027 55.0358Z" fill="#F39E23"/>
<path id="Vector_2" fill-rule="evenodd" clip-rule="evenodd" d="M45.18 40.8518C44.7491 41.4985 43.8727 41.6729 43.2227 41.2442C42.5727 40.8155 42.3974 39.9435 42.8283 39.2968L49.0874 29.8723L45.4649 29.5671C44.6834 29.5017 44.1064 28.8259 44.1721 28.0484C44.1941 27.7941 44.2817 27.5543 44.4205 27.3581C45.6694 25.3598 46.8526 23.2526 48.0357 21.1598C54.0539 10.5073 59.9332 0.0872675 74.3359 1.32256C75.1173 1.38795 75.6943 2.06373 75.6286 2.84124C75.6067 3.11009 75.5117 3.35715 75.3584 3.56061L47.561 47.457C47.1447 48.1109 46.2756 48.3071 45.6182 47.9002C44.9609 47.486 44.7637 46.6213 45.1727 45.9674L71.7139 4.04746C60.7878 4.30905 55.6972 13.3267 50.5043 22.5332C49.6717 24.0083 48.8318 25.4906 47.97 26.9512L51.6948 27.2709C51.9212 27.2927 52.1549 27.3654 52.3594 27.4962C53.0095 27.9249 53.1847 28.7968 52.7538 29.4435L45.18 40.8518Z" fill="#F39E23"/>
<path id="Vector_3" fill-rule="evenodd" clip-rule="evenodd" d="M29.0098 9.58444C28.6739 8.8796 28.9806 8.04396 29.6818 7.71697C30.3902 7.38272 31.2301 7.68791 31.5588 8.38548L38.2488 22.5259C39.6292 25.4397 39.6803 28.6442 38.6578 31.4636C37.6353 34.2902 35.5392 36.7245 32.6178 38.0905C29.6891 39.4639 26.4682 39.5148 23.6344 38.4975C20.8006 37.4802 18.3466 35.3947 16.9736 32.4882L10.4588 18.7183C10.1228 18.0135 10.4296 17.1778 11.1307 16.8508C11.8392 16.5166 12.6791 16.8218 13.0077 17.5194L19.5225 31.2819C20.5669 33.4982 22.4293 35.0823 24.5839 35.8525C26.7384 36.6227 29.1851 36.5791 31.4127 35.54C33.6403 34.5009 35.2325 32.648 36.0067 30.5044C36.7808 28.3608 36.7443 25.9193 35.6926 23.7103L29.0098 9.58444Z" fill="white"/>
<path id="Vector_4" fill-rule="evenodd" clip-rule="evenodd" d="M17.9085 18.2533C17.5725 17.5484 17.8793 16.7128 18.5804 16.3858C19.2889 16.0515 20.1288 16.3567 20.4574 17.0543L27.1037 31.1003C27.4396 31.8051 27.1329 32.6407 26.4318 32.9677C25.7233 33.302 24.8834 32.9968 24.5547 32.2992L17.9085 18.2533ZM24.416 15.3394L31.0111 29.2764C31.347 29.9812 32.187 30.2792 32.8881 29.9449C33.5965 29.6107 33.896 28.775 33.56 28.0774L26.9649 14.1332C26.6289 13.4284 25.789 13.1304 25.0879 13.4647C24.3868 13.799 24.08 14.6346 24.416 15.3394Z" fill="white"/>
<path id="Vector_5" fill-rule="evenodd" clip-rule="evenodd" d="M33.7496 36.3684C33.3844 35.6854 33.6546 34.8352 34.3411 34.4719C35.0277 34.1086 35.8822 34.3774 36.2474 35.0605L52.2714 65.1216C52.3152 65.2015 52.3517 65.2815 52.3956 65.3614C53.0894 66.8292 53.0967 68.4423 52.5635 69.8811C52.045 71.2908 51.0006 72.5261 49.591 73.2745C49.5326 73.3036 49.4449 73.3472 49.3208 73.4053L49.0505 73.5288L48.9702 73.5579C47.5168 74.1319 45.9246 74.1319 44.5296 73.6451C43.0835 73.1364 41.8346 72.1046 41.1408 70.6368L41.0312 70.3825L39.0519 65.6302C38.7525 64.9109 39.1031 64.097 39.8188 63.7991C40.5419 63.5012 41.3599 63.85 41.6593 64.5621L43.6678 69.387L43.697 69.4378C44.0549 70.1936 44.7049 70.724 45.4718 70.9929C46.246 71.2617 47.1151 71.269 47.9185 70.9565L48.0865 70.8839L48.269 70.7894H48.2763C49.0505 70.3825 49.6275 69.6922 49.9123 68.9147C50.1899 68.159 50.1972 67.3161 49.8393 66.5676L49.7736 66.4368L33.7496 36.3684ZM36.7367 52.7178L30.5652 37.8653C30.2658 37.1459 29.4478 36.8044 28.7247 37.1023C28.0017 37.4003 27.6584 38.2141 27.9578 38.9335L34.1293 53.786C34.4288 54.5054 35.2468 54.8469 35.9698 54.549C36.6929 54.2583 37.0362 53.4372 36.7367 52.7178Z" fill="white"/>
<path id="Vector_6" fill-rule="evenodd" clip-rule="evenodd" d="M55.7918 47.2898C55.7918 47.0428 55.7845 46.7231 55.7699 46.3234C55.7552 45.931 55.7333 45.5822 55.7114 45.2843H57.4716C57.5008 45.5168 57.5154 45.793 57.53 46.0981C57.5446 46.4033 57.5519 46.6577 57.5519 46.8539H57.6104C57.8733 46.3016 58.2604 45.8584 58.7643 45.5241C59.2683 45.1898 59.8379 45.0227 60.4733 45.0227C60.7655 45.0227 61.0065 45.0518 61.2037 45.1026L61.1234 46.8103C60.8604 46.7449 60.5756 46.7085 60.2762 46.7085C59.8306 46.7085 59.4362 46.7885 59.1076 46.9556C58.7789 47.1227 58.5014 47.3407 58.2896 47.6168C58.0705 47.8929 57.9098 48.2127 57.8075 48.5687C57.7053 48.932 57.6469 49.3026 57.6469 49.7023V54.5998H55.7918V47.2898ZM68.7337 49.1137C68.7191 48.7431 68.6606 48.4016 68.5438 48.0819C68.4342 47.7621 68.2663 47.4788 68.0471 47.2462C67.828 47.0137 67.5578 46.8248 67.2364 46.6867C66.9151 46.5487 66.5353 46.4833 66.0971 46.4833C65.7027 46.4833 65.3302 46.5487 64.9796 46.6867C64.6291 46.8248 64.3296 47.0137 64.074 47.2462C63.8184 47.4788 63.6066 47.7621 63.4386 48.0819C63.2706 48.4016 63.1757 48.7504 63.1538 49.1137H68.7337ZM70.6107 49.8621C70.6107 49.9639 70.6107 50.0729 70.6107 50.1746C70.6107 50.2763 70.6034 50.3853 70.5888 50.4871H63.1611C63.1757 50.8794 63.2633 51.25 63.4313 51.5988C63.5993 51.9476 63.8184 52.2455 64.0959 52.4998C64.3735 52.7542 64.6948 52.9576 65.0527 53.103C65.4179 53.2483 65.7976 53.321 66.2066 53.321C66.8421 53.321 67.3825 53.1829 67.8499 52.9068C68.3101 52.6306 68.6753 52.2964 68.9382 51.904L70.2455 52.9431C69.7416 53.5971 69.1573 54.0767 68.4781 54.3891C67.7988 54.6943 67.0466 54.8542 66.2139 54.8542C65.5055 54.8542 64.8409 54.7379 64.2347 54.4981C63.6285 54.2656 63.1099 53.9313 62.6717 53.5026C62.2335 53.0739 61.8975 52.5652 61.6419 51.9621C61.3936 51.359 61.2694 50.6905 61.2694 49.9566C61.2694 49.2372 61.3936 48.5687 61.6346 47.9583C61.8756 47.348 62.2189 46.8248 62.6498 46.3961C63.088 45.9601 63.5993 45.6258 64.1909 45.386C64.7825 45.1462 65.4252 45.0227 66.1044 45.0227C66.7909 45.0227 67.4117 45.1317 67.9741 45.357C68.5365 45.5822 69.0112 45.9019 69.3983 46.3234C69.7854 46.7449 70.0848 47.2535 70.2966 47.8493C70.5084 48.4452 70.6107 49.1137 70.6107 49.8621ZM77.5491 47.6386C77.3373 47.2971 77.0451 47.021 76.658 46.803C76.2783 46.585 75.8473 46.476 75.3726 46.476C75.1608 46.476 74.949 46.4978 74.7372 46.5414C74.5254 46.585 74.3355 46.6577 74.1748 46.7594C74.0068 46.8611 73.8754 46.9846 73.7804 47.13C73.6782 47.2826 73.6344 47.4642 73.6344 47.6895C73.6344 48.0819 73.8097 48.3725 74.1675 48.5615C74.5254 48.7504 75.0586 48.9248 75.767 49.0846C76.2125 49.1864 76.6288 49.3172 77.0086 49.4552C77.3884 49.6006 77.7244 49.7822 78.0092 49.9929C78.294 50.2109 78.5131 50.4653 78.6738 50.7704C78.8345 51.0684 78.9075 51.4244 78.9075 51.8313C78.9075 52.3836 78.8053 52.8486 78.5935 53.2265C78.3817 53.6043 78.1041 53.9168 77.7536 54.1639C77.403 54.4036 77.0086 54.578 76.5558 54.687C76.1103 54.7888 75.6502 54.8469 75.1754 54.8469C74.467 54.8469 73.7658 54.7088 73.0939 54.4327C72.4147 54.1566 71.8523 53.7351 71.4068 53.1756L72.7287 52.0566C72.977 52.4272 73.3276 52.7324 73.7658 52.9794C74.204 53.2265 74.6934 53.35 75.2192 53.35C75.453 53.35 75.6867 53.3282 75.8985 53.2846C76.1176 53.241 76.3148 53.1611 76.4901 53.0594C76.6654 52.9576 76.8114 52.8196 76.9137 52.6452C77.0159 52.478 77.0744 52.2601 77.0744 51.9985C77.0744 51.5625 76.8699 51.2428 76.4535 51.032C76.0372 50.8213 75.431 50.6251 74.6277 50.4435C74.3136 50.3635 73.9922 50.2691 73.6709 50.1601C73.3495 50.0511 73.0574 49.8912 72.7945 49.695C72.5315 49.4988 72.3197 49.2518 72.1517 48.9611C71.9838 48.6632 71.9034 48.2999 71.9034 47.8711C71.9034 47.3698 72.0057 46.941 72.2102 46.585C72.4147 46.2217 72.6776 45.931 73.0136 45.6985C73.3422 45.466 73.722 45.2988 74.1383 45.1898C74.5619 45.0808 74.9928 45.0227 75.4457 45.0227C76.1176 45.0227 76.7676 45.1535 77.3957 45.4151C78.0238 45.6767 78.5058 46.0545 78.8491 46.5559L77.5491 47.6386ZM85.1375 46.7957H82.647V51.6497C82.647 52.2165 82.7492 52.6161 82.961 52.8559C83.1728 53.0957 83.5088 53.2192 83.9689 53.2192C84.1369 53.2192 84.3268 53.1974 84.524 53.1611C84.7212 53.1248 84.8965 53.0594 85.0571 52.9867L85.1156 54.4981C84.8892 54.578 84.6408 54.6362 84.3779 54.687C84.1077 54.7306 83.8301 54.7524 83.538 54.7524C82.6543 54.7524 81.9823 54.5126 81.5149 54.0258C81.0475 53.5389 80.8138 52.8123 80.8138 51.8459V46.7957H79.0171V45.2843H80.8138V42.6103H82.6543V45.2843H85.1448V46.7957H85.1375ZM92.1635 48.5615C92.1635 47.8639 91.9517 47.3552 91.5281 47.021C91.1045 46.6867 90.5494 46.5196 89.8483 46.5196C89.3224 46.5196 88.8258 46.6213 88.3584 46.8248C87.8909 47.0282 87.4965 47.2898 87.1825 47.6023L86.1965 46.4251C86.6566 45.9891 87.219 45.6549 87.8836 45.4006C88.5482 45.1535 89.264 45.03 90.0309 45.03C90.7028 45.03 91.2871 45.1244 91.7764 45.3134C92.2731 45.5023 92.6748 45.7639 92.9888 46.0909C93.3029 46.4179 93.5439 46.803 93.6973 47.2535C93.8579 47.6968 93.931 48.1763 93.931 48.6923V52.7614C93.931 53.0739 93.9383 53.4081 93.9602 53.7569C93.9821 54.1057 94.0186 54.3891 94.0697 54.6144H92.3899C92.2877 54.1711 92.2292 53.7206 92.2292 53.2774H92.1708C91.8275 53.7787 91.3966 54.1639 90.8781 54.44C90.3595 54.7161 89.7387 54.8542 89.0303 54.8542C88.6578 54.8542 88.278 54.8033 87.8763 54.7088C87.4746 54.6071 87.1094 54.4472 86.7808 54.2293C86.4521 54.004 86.1746 53.7133 85.9628 53.3428C85.7437 52.9722 85.6341 52.5216 85.6341 51.9839C85.6341 51.2791 85.824 50.7123 86.2038 50.3054C86.5836 49.8912 87.0875 49.5788 87.7083 49.3608C88.3291 49.1428 89.023 49.0047 89.8045 48.9393C90.5786 48.8739 91.3674 48.8376 92.1562 48.8376V48.5615H92.1635ZM91.7107 50.1601C91.2506 50.1601 90.7685 50.1819 90.2792 50.2182C89.7825 50.2545 89.337 50.3345 88.9353 50.4507C88.5336 50.567 88.1977 50.7486 87.9347 50.9812C87.6718 51.2137 87.5404 51.5334 87.5404 51.9258C87.5404 52.2019 87.5988 52.4272 87.7083 52.6161C87.8179 52.7978 87.9713 52.9504 88.1539 53.0666C88.3364 53.1829 88.5409 53.2701 88.7674 53.3137C88.9938 53.3573 89.2202 53.3791 89.4612 53.3791C90.3303 53.3791 91.0022 53.1175 91.4697 52.6016C91.9371 52.0857 92.1708 51.4317 92.1708 50.6469V50.1528H91.7107V50.1601ZM102.936 54.5998C102.907 54.3673 102.892 54.0985 102.878 53.8005C102.863 53.5026 102.856 53.2628 102.856 53.0666H102.819C102.586 53.568 102.184 53.9895 101.622 54.3382C101.059 54.687 100.438 54.8614 99.7519 54.8614C99.1457 54.8614 98.6199 54.7597 98.1816 54.5635C97.7434 54.3673 97.3783 54.0912 97.0934 53.7497C96.8086 53.4009 96.5968 53.0012 96.458 52.5434C96.3192 52.0857 96.2535 51.5915 96.2535 51.0684V45.2843H98.1086V50.4362C98.1086 50.814 98.1378 51.1774 98.1963 51.5261C98.2547 51.8749 98.3642 52.1801 98.5249 52.4417C98.6856 52.7033 98.8974 52.914 99.1749 53.0739C99.4525 53.2338 99.8103 53.3064 100.241 53.3064C100.994 53.3064 101.6 53.0303 102.06 52.4708C102.52 51.9113 102.754 51.1701 102.754 50.24V45.2843H104.609V52.6016C104.609 52.8486 104.616 53.1684 104.631 53.568C104.645 53.9604 104.667 54.3092 104.689 54.6071H102.936V54.5998ZM107.121 47.2898C107.121 47.0428 107.114 46.7231 107.099 46.3234C107.085 45.931 107.063 45.5822 107.041 45.2843H108.801C108.83 45.5168 108.845 45.793 108.859 46.0981C108.874 46.4033 108.881 46.6577 108.881 46.8539H108.94C109.203 46.3016 109.59 45.8584 110.094 45.5241C110.598 45.1898 111.167 45.0227 111.803 45.0227C112.095 45.0227 112.336 45.0518 112.533 45.1026L112.453 46.8103C112.19 46.7449 111.905 46.7085 111.606 46.7085C111.16 46.7085 110.766 46.7885 110.437 46.9556C110.108 47.1227 109.831 47.3407 109.619 47.6168C109.4 47.8929 109.239 48.2127 109.137 48.5687C109.035 48.932 108.976 49.3026 108.976 49.7023V54.5998H107.121V47.2898ZM119.136 48.5615C119.136 47.8639 118.924 47.3552 118.5 47.021C118.077 46.6867 117.521 46.5196 116.82 46.5196C116.294 46.5196 115.798 46.6213 115.33 46.8248C114.863 47.0282 114.469 47.2898 114.155 47.6023L113.169 46.4251C113.629 45.9891 114.191 45.6549 114.856 45.4006C115.52 45.1535 116.236 45.03 117.003 45.03C117.675 45.03 118.259 45.1244 118.748 45.3134C119.245 45.5023 119.647 45.7639 119.961 46.0909C120.275 46.4179 120.516 46.803 120.669 47.2535C120.83 47.6968 120.903 48.1763 120.903 48.6923V52.7614C120.903 53.0739 120.91 53.4081 120.932 53.7569C120.954 54.1057 120.991 54.3891 121.042 54.6144H119.362C119.26 54.1711 119.201 53.7206 119.201 53.2774H119.143C118.8 53.7787 118.369 54.1639 117.85 54.44C117.332 54.7161 116.711 54.8542 116.002 54.8542C115.63 54.8542 115.25 54.8033 114.848 54.7088C114.447 54.6071 114.082 54.4472 113.753 54.2293C113.424 54.004 113.147 53.7133 112.935 53.3428C112.716 52.9722 112.606 52.5216 112.606 51.9839C112.606 51.2791 112.796 50.7123 113.176 50.3054C113.556 49.8912 114.06 49.5788 114.68 49.3608C115.301 49.1428 115.995 49.0047 116.777 48.9393C117.551 48.8739 118.339 48.8376 119.128 48.8376V48.5615H119.136ZM118.683 50.1601C118.223 50.1601 117.741 50.1819 117.251 50.2182C116.755 50.2545 116.309 50.3345 115.907 50.4507C115.506 50.567 115.17 50.7486 114.907 50.9812C114.644 51.2137 114.512 51.5334 114.512 51.9258C114.512 52.2019 114.571 52.4272 114.68 52.6161C114.79 52.7978 114.943 52.9504 115.126 53.0666C115.309 53.1829 115.513 53.2701 115.739 53.3137C115.966 53.3573 116.192 53.3791 116.433 53.3791C117.302 53.3791 117.974 53.1175 118.442 52.6016C118.909 52.0857 119.143 51.4317 119.143 50.6469V50.1528H118.683V50.1601ZM124.978 45.2843C125.008 45.5168 125.022 45.7857 125.037 46.0836C125.051 46.3815 125.059 46.6213 125.059 46.8175H125.117C125.234 46.5705 125.395 46.3379 125.599 46.1199C125.804 45.9019 126.037 45.713 126.3 45.5532C126.563 45.386 126.855 45.2625 127.169 45.168C127.484 45.0736 127.812 45.03 128.155 45.03C128.762 45.03 129.28 45.1317 129.718 45.3352C130.157 45.5386 130.515 45.8075 130.807 46.149C131.099 46.4905 131.311 46.8902 131.449 47.348C131.588 47.8057 131.654 48.2999 131.654 48.823V54.6071H129.799V49.4334C129.799 49.0556 129.77 48.6923 129.711 48.3507C129.653 48.0092 129.543 47.7113 129.382 47.4497C129.222 47.1881 129.01 46.9774 128.732 46.8175C128.455 46.6577 128.097 46.585 127.666 46.585C126.928 46.585 126.322 46.8611 125.855 47.4206C125.387 47.9801 125.154 48.7213 125.154 49.6514V54.6071H123.299V47.2898C123.299 47.0428 123.291 46.7231 123.277 46.3234C123.262 45.9237 123.24 45.5822 123.218 45.2843H124.978ZM138.673 46.7957H136.182V51.6497C136.182 52.2165 136.284 52.6161 136.496 52.8559C136.708 53.0957 137.044 53.2192 137.504 53.2192C137.672 53.2192 137.862 53.1974 138.059 53.1611C138.256 53.1248 138.432 53.0594 138.592 52.9867L138.651 54.4981C138.424 54.578 138.176 54.6362 137.913 54.687C137.643 54.7306 137.365 54.7524 137.073 54.7524C136.189 54.7524 135.517 54.5126 135.05 54.0258C134.583 53.5389 134.349 52.8123 134.349 51.8459V46.7957H132.552V45.2843H134.349V42.6103H136.189V45.2843H138.68V46.7957H138.673ZM145.487 48.9756L145.465 48.9538C145.268 49.0701 144.997 49.1646 144.654 49.23C144.494 49.259 144.333 49.2808 144.172 49.2954C144.004 49.3172 143.851 49.3244 143.705 49.3244C143.084 49.3244 142.514 49.2154 141.988 48.9974C141.463 48.7794 141.002 48.4815 140.608 48.0964C140.214 47.7113 139.9 47.2462 139.68 46.7085C139.454 46.1708 139.345 45.5895 139.345 44.9573C139.345 44.2597 139.469 43.6276 139.71 43.0608C139.951 42.494 140.294 41.9999 140.725 41.593C141.163 41.1861 141.674 40.8736 142.266 40.6483C142.858 40.4231 143.5 40.3141 144.179 40.3141C144.866 40.3141 145.501 40.4303 146.093 40.6556C146.685 40.8881 147.196 41.2006 147.627 41.6075C148.058 42.0144 148.394 42.5013 148.635 43.0608C148.876 43.6276 149 44.2307 149 44.8919C149 45.6549 148.876 46.3379 148.627 46.9556C148.379 47.5732 148.058 48.1981 147.656 48.8448L143.997 54.5853H141.725L145.487 48.9756ZM147.094 44.8847C147.094 44.4777 147.028 44.0926 146.889 43.7366C146.75 43.3732 146.553 43.0608 146.298 42.7919C146.042 42.5231 145.735 42.3123 145.377 42.1525C145.019 41.9926 144.625 41.92 144.194 41.92C143.756 41.92 143.361 41.9926 143.011 42.1452C142.653 42.2978 142.346 42.5013 142.091 42.7629C141.835 43.0245 141.638 43.3369 141.499 43.7075C141.36 44.0781 141.295 44.4777 141.295 44.9065C141.295 45.3279 141.36 45.713 141.499 46.0691C141.638 46.4251 141.835 46.7303 142.083 46.9919C142.332 47.2535 142.638 47.457 142.989 47.6023C143.347 47.7476 143.741 47.8203 144.172 47.8203C144.61 47.8203 145.005 47.7476 145.37 47.6023C145.735 47.457 146.042 47.2535 146.298 46.9919C146.553 46.7303 146.75 46.4251 146.889 46.0691C147.021 45.713 147.094 45.3206 147.094 44.8847Z" fill="white"/>
</g>
</svg>
