<svg xmlns="http://www.w3.org/2000/svg" width="476.506" height="505.401" viewBox="0 0 476.506 505.401">
  <g id="Groupe_13" data-name="Groupe 13" transform="translate(0 505.401) rotate(-90)">
    <path id="Tracé_23" data-name="Tracé 23" d="M185.513,252.437a137.361,137.361,0,0,0,44.026-100.145C229.538,76.136,166.3,14.184,88.6,14.184H23.25V90.076H88.6c37.7,0,68.345,27.912,68.345,62.216S126.3,214.508,88.6,214.508H23.25V290.4H88.6c37.7,0,68.345,27.912,68.345,62.216S126.3,414.832,88.6,414.832H23.25v75.859H88.6c77.7,0,140.942-61.952,140.942-138.075A137.488,137.488,0,0,0,185.513,252.437Z" transform="translate(275.862 -14.184)" fill="#1c1b1a"/>
    <path id="Tracé_24" data-name="Tracé 24" d="M255,74.322,208.327,16.24,14.955,186.064l-.782.689L207.668,356.693l.659.572,46.121-57.406.547-.677-128-112.43L254.342,74.906Z" transform="translate(-14.173 51.504)" fill="#1c1b1a"/>
  </g>
</svg>
