<svg xmlns="http://www.w3.org/2000/svg" width="339" height="50" fill="none"><rect width="339" height="50" fill="#41A6B4" rx="12"/><path fill="#fff" d="M133.972 22.71c-.045-.458-.24-.814-.585-1.068-.345-.254-.812-.38-1.403-.38-.402 0-.741.056-1.017.17-.277.11-.489.263-.637.46-.144.197-.216.42-.216.67a.96.96 0 0 0 .131.546c.099.155.233.29.403.403.171.11.368.207.591.29.224.08.462.148.716.205l1.046.25c.507.113.973.265 1.397.454.425.19.792.423 1.103.7.31.276.551.601.721.976.175.375.264.805.267 1.29-.003.712-.185 1.33-.545 1.852-.356.52-.871.923-1.546 1.21-.67.285-1.479.427-2.426.427-.939 0-1.757-.144-2.454-.432-.693-.288-1.235-.714-1.625-1.279-.387-.568-.589-1.27-.608-2.107h2.38c.027.39.139.715.336.977.2.257.468.452.801.585.337.129.718.193 1.142.193.417 0 .778-.06 1.085-.181.311-.122.551-.29.722-.506a1.17 1.17 0 0 0 .255-.744.964.964 0 0 0-.233-.66c-.151-.178-.375-.33-.67-.454a6.842 6.842 0 0 0-1.074-.341l-1.267-.318c-.981-.239-1.756-.612-2.324-1.12-.568-.507-.85-1.19-.846-2.05-.004-.705.183-1.32.562-1.847.383-.527.907-.938 1.574-1.233.667-.296 1.424-.444 2.273-.444.863 0 1.617.148 2.261.444.648.295 1.152.706 1.511 1.233.36.526.546 1.136.557 1.83h-2.358Zm4.127 11.563v-12h2.386v1.466h.108c.106-.235.26-.474.46-.716.205-.247.47-.451.796-.614.329-.167.738-.25 1.227-.25a3.28 3.28 0 0 1 1.761.5c.538.33.968.828 1.29 1.494.322.663.483 1.495.483 2.495 0 .973-.157 1.795-.472 2.466-.31.666-.734 1.172-1.272 1.517a3.268 3.268 0 0 1-1.796.511c-.469 0-.869-.078-1.199-.233a2.495 2.495 0 0 1-.801-.585 2.986 2.986 0 0 1-.477-.722h-.074v4.67h-2.42Zm2.369-7.637c0 .52.072.972.216 1.358.144.387.352.688.625.904.273.212.604.318.994.318.394 0 .728-.108 1-.324.273-.22.479-.523.62-.909.144-.39.215-.84.215-1.347 0-.503-.07-.947-.21-1.33-.14-.382-.346-.681-.619-.897-.273-.216-.608-.324-1.006-.324-.394 0-.727.104-1 .313-.269.208-.475.503-.619.886-.144.383-.216.833-.216 1.352ZM148.224 31v-8.727h2.42V31h-2.42Zm1.216-9.852c-.36 0-.669-.12-.927-.358a1.163 1.163 0 0 1-.38-.87c0-.333.127-.619.38-.858.258-.242.567-.363.927-.363.359 0 .666.121.92.363.258.24.386.525.386.858 0 .338-.128.627-.386.87a1.296 1.296 0 0 1-.92.358Zm5.564 4.806V31h-2.421v-8.727h2.307v1.54h.102c.193-.508.517-.91.972-1.205.454-.3 1.005-.449 1.653-.449.606 0 1.135.133 1.585.398.451.265.802.644 1.052 1.136.25.489.375 1.072.375 1.75V31h-2.421v-5.125c.004-.534-.132-.95-.409-1.25-.277-.303-.657-.454-1.142-.454-.326 0-.614.07-.864.21-.246.14-.439.344-.579.613-.137.265-.207.585-.21.96ZM167.961 31l-2.375-8.727h2.449l1.352 5.863h.08l1.409-5.863h2.403l1.432 5.83h.074l1.329-5.83h2.444L176.188 31h-2.562l-1.5-5.489h-.108l-1.5 5.489h-2.557Zm14.308-5.046V31h-2.42V19.364h2.352v4.448h.102c.197-.515.515-.918.955-1.21.439-.295.99-.443 1.653-.443.606 0 1.135.133 1.585.398.455.261.807.638 1.057 1.13.254.49.379 1.074.375 1.756V31h-2.42v-5.125c.004-.538-.133-.956-.409-1.256-.273-.299-.656-.448-1.148-.448-.33 0-.621.07-.875.21a1.49 1.49 0 0 0-.591.613c-.14.265-.212.585-.216.96Zm11.541 5.216c-.897 0-1.67-.181-2.318-.545a3.731 3.731 0 0 1-1.488-1.557c-.349-.674-.523-1.471-.523-2.392 0-.898.174-1.685.523-2.363a3.863 3.863 0 0 1 1.471-1.586c.637-.378 1.383-.568 2.239-.568.576 0 1.112.093 1.608.279.5.181.935.456 1.307.823.375.368.666.83.875 1.387.208.553.312 1.2.312 1.943v.665h-7.369v-1.5h5.091a1.85 1.85 0 0 0-.228-.927 1.622 1.622 0 0 0-.63-.63 1.799 1.799 0 0 0-.926-.233c-.368 0-.694.085-.978.256-.28.166-.5.392-.659.676-.159.28-.24.593-.244.937v1.426c0 .432.079.805.239 1.12.162.314.392.556.687.727.295.17.646.256 1.051.256.269 0 .515-.038.739-.114.223-.076.415-.19.574-.34.159-.152.28-.338.363-.558l2.239.148a3.063 3.063 0 0 1-.699 1.41c-.348.397-.799.707-1.352.93-.549.22-1.184.33-1.904.33Zm9.563 0c-.898 0-1.671-.181-2.318-.545a3.74 3.74 0 0 1-1.489-1.557c-.348-.674-.523-1.471-.523-2.392 0-.898.175-1.685.523-2.363a3.866 3.866 0 0 1 1.472-1.586c.636-.378 1.382-.568 2.238-.568.576 0 1.112.093 1.608.279.5.181.936.456 1.307.823.375.368.667.83.875 1.387.208.553.313 1.2.313 1.943v.665h-7.37v-1.5h5.091a1.86 1.86 0 0 0-.227-.927 1.632 1.632 0 0 0-.631-.63 1.799 1.799 0 0 0-.926-.233c-.367 0-.693.085-.977.256-.281.166-.5.392-.659.676-.159.28-.241.593-.245.937v1.426c0 .432.08.805.239 1.12.163.314.392.556.688.727.295.17.645.256 1.051.256.269 0 .515-.038.738-.114a1.53 1.53 0 0 0 .574-.34c.159-.152.28-.338.364-.558l2.238.148a3.052 3.052 0 0 1-.698 1.41c-.349.397-.8.707-1.353.93-.549.22-1.183.33-1.903.33Zm8.006-11.806V31h-2.421V19.364h2.421Z"/></svg>