<svg width="98" height="94" viewBox="0 0 98 94" fill="none" xmlns="http://www.w3.org/2000/svg">
<g id="verify">
<g id="verify_2">
<path id="Vector" d="M40.5198 10.779C42.9923 8.66482 47.0415 8.66482 49.5498 10.779L55.2115 15.6523C56.2865 16.584 58.2932 17.3365 59.7265 17.3365H65.8182C69.6165 17.3365 72.734 20.454 72.734 24.2523V30.344C72.734 31.7415 73.4865 33.784 74.4182 34.859L79.2915 40.5207C81.4057 42.9932 81.4057 47.0423 79.2915 49.5507L74.4182 55.2123C73.4865 56.2873 72.734 58.294 72.734 59.7273V65.819C72.734 69.6173 69.6165 72.7348 65.8182 72.7348H59.7265C58.329 72.7348 56.2865 73.4873 55.2115 74.419L49.5498 79.2923C47.0773 81.4065 43.0282 81.4065 40.5198 79.2923L34.8582 74.419C33.7832 73.4873 31.7765 72.7348 30.3432 72.7348H24.144C20.3457 72.7348 17.2282 69.6173 17.2282 65.819V59.6915C17.2282 58.294 16.4757 56.2873 15.5798 55.2123L10.7423 49.5148C8.66401 47.0423 8.66401 43.029 10.7423 40.5565L15.5798 34.859C16.4757 33.784 17.2282 31.7773 17.2282 30.3798V24.2165C17.2282 20.4182 20.3457 17.3007 24.144 17.3007H30.3432C31.7407 17.3007 33.7832 16.5482 34.8582 15.6165L40.5198 10.779Z" stroke="white" stroke-width="3" stroke-linecap="round" stroke-linejoin="round"/>
<path id="Vector_2" d="M34.8594 55.141L55.141 34.8594" stroke="white" stroke-width="3" stroke-linecap="round" stroke-linejoin="round"/>
<path id="Vector_3" d="M55.141 55.141L34.8594 34.8594" stroke="white" stroke-width="3" stroke-linecap="round" stroke-linejoin="round"/>
</g>
<path id="Vector_4" opacity="0.2" d="M49.5894 9.90227C52.5553 7.36591 57.4125 7.36591 60.4213 9.90227L67.2128 15.7488C68.5023 16.8665 70.9094 17.7693 72.6288 17.7693H79.936C84.4923 17.7693 88.2319 21.5094 88.2319 26.0662V33.3744C88.2319 35.051 89.1346 37.5014 90.2522 38.7911L96.098 45.5834C98.634 48.5496 98.634 53.4074 96.098 56.4166L90.2522 63.209C89.1346 64.4986 88.2319 66.906 88.2319 68.6256V75.9338C88.2319 80.4906 84.4923 84.2307 79.936 84.2307H72.6288C70.9524 84.2307 68.5023 85.1335 67.2128 86.2512L60.4213 92.0977C57.4555 94.6341 52.5983 94.6341 49.5894 92.0977L42.798 86.2512C41.5084 85.1335 39.1013 84.2307 37.382 84.2307H29.9458C25.3895 84.2307 21.6499 80.4906 21.6499 75.9338V68.5826C21.6499 66.906 20.7472 64.4986 19.6726 63.209L13.8698 56.3737C11.3767 53.4074 11.3767 48.5926 13.8698 45.6263L19.6726 38.7911C20.7472 37.5014 21.6499 35.094 21.6499 33.4174V26.0232C21.6499 21.4664 25.3895 17.7263 29.9458 17.7263H37.382C39.0584 17.7263 41.5084 16.8235 42.798 15.7058L49.5894 9.90227Z" fill="white"/>
</g>
</svg>
