<svg width="49" height="50" viewBox="0 0 49 50" fill="none" xmlns="http://www.w3.org/2000/svg">
<g id="Group 1171283513">
<path id="Vector" fill-rule="evenodd" clip-rule="evenodd" d="M48.7936 23.1309L48.7685 23.4637L48.7413 23.796L48.7122 24.1277L48.6811 24.459L48.6481 24.7897L48.6133 25.1201L48.5767 25.45L48.5382 25.7796L48.498 26.1088L48.4561 26.4377L48.4124 26.7664L48.3669 27.0948L48.3197 27.423L48.2706 27.751L48.2198 28.0789L48.1671 28.4066L48.1125 28.7343L48.056 29.0618L47.9975 29.3893L47.9369 29.7167L47.8742 30.0441L47.8093 30.3714L47.7421 30.6987L47.6726 31.026L47.6006 31.3531L47.526 31.6802L47.4488 32.0072L47.3688 32.334L47.286 32.6606L47.2002 32.987L47.1113 33.3132L47.0192 33.6391L46.9238 33.9645L46.825 34.2896L46.7227 34.6141L46.6167 34.938L46.507 35.2612L46.3935 35.5837L46.276 35.9053L46.1544 36.226L46.0287 36.5456L45.8988 36.8641L45.7645 37.1812L45.6259 37.497L45.4827 37.8113L45.3351 38.124L45.1828 38.4349L45.0258 38.744L44.8642 39.0511L44.6978 39.3561L44.5267 39.6589L44.3507 39.9593L44.1699 40.2572L43.9843 40.5526L43.7939 40.8452L43.5985 41.1349L43.3984 41.4217L43.1933 41.7053L42.9834 41.9857L42.7686 42.2626L42.549 42.536L42.3245 42.8058L42.0953 43.0718L41.8614 43.3338L41.6227 43.5918L41.3793 43.8455L41.1313 44.095L40.8787 44.34L40.6217 44.5805L40.3602 44.8163L40.0943 45.0472L39.8241 45.2733L39.5498 45.4944L39.2713 45.7103L38.9887 45.921L38.7023 46.1264L38.412 46.3263L38.118 46.5208L37.8204 46.7096L37.5193 46.8928L37.2148 47.0703L36.9071 47.242L36.5963 47.4078L36.2824 47.5677L35.9657 47.7216L35.6463 47.8695L35.3242 48.0113L34.9997 48.147L34.6728 48.2765L34.3437 48.3998L34.0126 48.5168L33.6794 48.6276L33.3445 48.732L33.0079 48.83L32.6697 48.9216L32.3301 49.0068L31.9892 49.0855L31.6472 49.1577L31.3043 49.2235L30.9604 49.2827L30.6158 49.3355L30.2707 49.3817L29.9251 49.4214L29.5792 49.4546L29.2332 49.4814L28.8871 49.5016L28.5412 49.5154L28.1956 49.5228L27.8503 49.5238L27.5056 49.5185L27.1616 49.5068L26.8184 49.4889L26.4762 49.4648L26.1351 49.4345L25.7952 49.3982L25.4566 49.3559L25.1196 49.3077L24.7841 49.2536L24.4504 49.1937L24.1185 49.1282L23.7886 49.0572L23.4607 48.9806L23.1351 48.8987L22.8117 48.8116L22.4908 48.7193L22.1723 48.6219L21.8564 48.5197L21.5432 48.4126L21.2327 48.3009L20.9251 48.1846L20.6204 48.0639L20.3187 47.9389L20.02 47.8098L19.7245 47.6766L19.4321 47.5395L19.143 47.3987L18.8571 47.2542L18.5746 47.1062L18.2954 46.9548L18.0196 46.8001L17.7473 46.6423L17.4784 46.4816L17.213 46.318L16.9511 46.1516L16.6927 45.9826L16.4378 45.8112L16.1865 45.6374L15.9387 45.4613L15.6944 45.2832L15.4537 45.103L15.2164 44.921L14.9827 44.7372L14.7524 44.5518L14.5257 44.3649L14.3024 44.1765L14.0825 43.9868L13.8659 43.7958L13.6528 43.6037L13.443 43.4106L13.2365 43.2166L13.0333 43.0217L12.8332 42.8261L12.6364 42.6297L12.4427 42.4328L12.2521 42.2353L12.0645 42.0374L11.88 41.8391L11.6984 41.6404L11.5197 41.4416L11.3439 41.2425L11.1709 41.0432L11.0006 40.8439L10.833 40.6446L10.668 40.4452L10.5057 40.246L10.3458 40.0469L10.1884 39.8481L10.0333 39.6495L9.88049 39.4512L9.7299 39.2533L9.58144 39.0558L9.43502 38.8589L9.29056 38.6625L9.14796 38.4666L9.00714 38.2714L8.86801 38.0769L8.73047 37.883L8.59442 37.6899L8.45978 37.4976L8.32645 37.3061L8.19432 37.1155L8.06331 36.9256L7.93332 36.7366L7.80426 36.5485L7.67603 36.3613L7.54854 36.1749L7.42169 35.9894L7.29541 35.8047L7.16961 35.6208L7.0442 35.4378L6.9191 35.2555L6.79424 35.074L6.66955 34.8932L6.54496 34.7131L6.42041 34.5335L6.29584 34.3546L6.17119 34.1762L6.04643 33.9982L5.9215 33.8206L5.79638 33.6434L5.67104 33.4664L5.54545 33.2896L5.41961 33.1128L5.29349 32.9361L5.1671 32.7594L5.04046 32.5824L4.91356 32.4053L4.78644 32.2278L4.65912 32.0499L4.53164 31.8715L4.40405 31.6926L4.27639 31.5129L4.14873 31.3325L4.02113 31.1512L3.89368 30.9689L3.76645 30.7857L3.63952 30.6013L3.513 30.4157L3.38698 30.2289L3.26156 30.0407L3.13685 29.8511L3.01296 29.66L2.89001 29.4674L2.76811 29.2732L2.6474 29.0773L2.52799 28.8798L2.41002 28.6805L2.29361 28.4795L2.17891 28.2767L2.06604 28.072L1.95515 27.8655L1.84636 27.6572L1.73982 27.447L1.63567 27.2349L1.53403 27.021L1.43506 26.8053L1.33888 26.5877L1.24563 26.3682L1.15544 26.147L1.06844 25.9241L0.984768 25.6994L0.904537 25.4731L0.827872 25.2451L0.754893 25.0156L0.685715 24.7846L0.620446 24.5521L0.559194 24.3182L0.50206 24.0831L0.449137 23.8467L0.400514 23.6091L0.356269 23.3705L0.316472 23.1309L0.281187 22.8905L0.250467 22.6492L0.224359 22.4072L0.202902 22.1647L0.186125 21.9216L0.174051 21.6781L0.166694 21.4342L0.164062 21.1902L0.166156 20.9461L0.172966 20.7019L0.184479 20.4578L0.200675 20.2138L0.221525 19.9701L0.246996 19.7268L0.27705 19.4839L0.31164 19.2415L0.350719 18.9997L0.394231 18.7586L0.442116 18.5182L0.494313 18.2787L0.550753 18.0401L0.611368 17.8025L0.676084 17.5659L0.744825 17.3304L0.817514 17.096L0.894071 16.8629L0.974416 16.6311L1.05847 16.4005L1.14614 16.1713L1.23735 15.9435L1.33202 15.7171L1.43006 15.4922L1.53139 15.2688L1.63593 15.0469L1.74361 14.8265L1.85434 14.6078L1.96804 14.3906L2.08465 14.1751L2.20409 13.9611L2.32629 13.7489L2.45119 13.5383L2.57872 13.3294L2.70882 13.1221L2.84145 12.9166L2.97653 12.7128L3.11403 12.5108L3.2539 12.3105L3.3961 12.1119L3.54058 11.9152L3.68732 11.7202L3.83627 11.527L3.98742 11.3357L4.14072 11.1462L4.29615 10.9586L4.45366 10.7728L4.61324 10.5889L4.77485 10.407L4.93845 10.2269L5.10403 10.0488L5.27154 9.87258L5.44096 9.69834L5.61226 9.52605L5.7854 9.35574L5.96035 9.1874L6.1371 9.02105L6.31559 8.85669L6.49581 8.69433L6.67773 8.53396L6.8613 8.3756L7.04651 8.21925L7.23332 8.0649L7.4217 7.91255L7.61162 7.76222L7.80305 7.61388L7.99596 7.46754L8.19033 7.32319L8.38611 7.18083L8.58328 7.04045L8.78182 6.90203L8.98169 6.76557L9.18287 6.63106L9.38533 6.49848L9.58905 6.36782L9.79399 6.23906L10.0001 6.11219L10.2075 5.98717L10.4159 5.86399L10.6255 5.74261L10.8362 5.62299L11.0479 5.5051L11.2607 5.3889L11.4744 5.27434L11.6892 5.16137L11.905 5.04995L12.1216 4.94003L12.3393 4.83155L12.5578 4.72446L12.7772 4.61871L12.9976 4.51425L13.2188 4.41101L13.4409 4.30896L13.6639 4.20802L13.8879 4.10815L14.1127 4.0093L14.3384 3.91142L14.565 3.81446L14.7926 3.71838L15.0211 3.62313L15.2506 3.52866L15.4811 3.43496L15.7127 3.34197L15.9453 3.24967L16.179 3.15803L16.4139 3.06704L16.6499 2.97666L16.8871 2.88689L17.1256 2.79771L17.3653 2.70913L17.6064 2.62113L17.8489 2.53372L18.0928 2.44691L18.3382 2.36071L18.585 2.27513L18.8335 2.1902L19.0836 2.10594L19.3353 2.02238L19.5887 1.93954L19.8439 1.85748L20.1009 1.77622L20.3597 1.69582L20.6204 1.61631L20.883 1.53775L21.1476 1.46019L21.4142 1.38368L21.6828 1.30829L21.9535 1.23406L22.2263 1.16106L22.5012 1.08935L22.7783 1.019L23.0576 0.950081L23.3391 0.882681L23.6229 0.816882L23.9089 0.752774L24.1972 0.690454L24.4878 0.630022L24.7806 0.571584L25.0758 0.515249L25.3732 0.461132L25.673 0.409349L25.975 0.360021L26.2792 0.313272L26.5856 0.269229L26.8943 0.22802L27.2051 0.189778L27.518 0.154633L27.8331 0.122721L28.1501 0.0941766L28.4691 0.0691347L28.79 0.0477311L29.1127 0.0301014L29.4372 0.0163803L29.7633 0.0067016L30.0911 0.00119792L30.4204 0L30.751 0.00323657L31.083 0.0110339L31.4161 0.0235155L31.7503 0.0408018L32.0855 0.0630097L32.4215 0.0902524L32.7583 0.12264L33.0956 0.16028L33.4334 0.203282L33.7714 0.251751L34.1096 0.305792L34.4478 0.365507L34.7859 0.430994L35.1236 0.50235L35.4607 0.579665L35.7972 0.663025L36.1328 0.752512L36.4674 0.8482L36.8007 0.950158L37.1325 1.05845L37.4628 1.17313L37.7912 1.29424L38.1175 1.42184L38.4417 1.55594L38.7634 1.69657L39.0824 1.84376L39.3987 1.99749L39.7119 2.15778L40.0219 2.32462L40.3285 2.49797L40.6314 2.67782L40.9306 2.86413L41.2257 3.05684L41.5167 3.25591L41.8033 3.46126L42.0854 3.67283L42.3629 3.89052L42.6355 4.11426L42.903 4.34395L43.1655 4.57947L43.4226 4.82071L43.6743 5.06756L43.9205 5.31988L44.161 5.57754L44.3958 5.8404L44.6247 6.10832L44.8476 6.38114L45.0645 6.65871L45.2752 6.94086L45.4798 7.22744L45.6782 7.51828L45.8703 7.81321L46.056 8.11205L46.2355 8.41463L46.4086 8.72077L46.5753 9.03031L46.7356 9.34305L46.8897 9.65883L47.0373 9.97747L47.1787 10.2988L47.3138 10.6226L47.4426 10.9488L47.5653 11.2771L47.6819 11.6075L47.7924 11.9396L47.8969 12.2734L47.9956 12.6088L48.0884 12.9455L48.1756 13.2833L48.2572 13.6223L48.3333 13.9621L48.404 14.3027L48.4695 14.644L48.5298 14.9857L48.5852 15.3279L48.6357 15.6704L48.6815 16.013L48.7228 16.3557L48.7596 16.6984L48.7921 17.041L48.8204 17.3834L48.8447 17.7255L48.8652 18.0673L48.8819 18.4088L48.895 18.7498L48.9046 19.0903L48.9109 19.4303L48.914 19.7698L48.9141 20.1087L48.9111 20.4469L48.9053 20.7846L48.8968 21.1217L48.8857 21.4581L48.872 21.7939L48.8558 22.1291L48.8373 22.4636L48.8165 22.7976L48.7936 23.1309Z" fill="#A65341" fill-opacity="0.1"/>
</g>
</svg>
