<svg width="48" height="48" viewBox="0 0 48 48" fill="none" xmlns="http://www.w3.org/2000/svg">
<g id="Gift box - Free entertainment icons-2 1">
<g id="Group">
<path id="Vector" d="M33.0699 27.3258H8.32339L29.7528 13.7007C29.8151 13.6611 29.8691 13.6096 29.9115 13.5491C29.9539 13.4886 29.984 13.4203 30.0001 13.3482C30.0161 13.2761 30.0178 13.2015 30.0051 13.1288C29.9923 13.056 29.9653 12.9864 29.9256 12.9241L27.8025 9.58491C27.3183 8.8252 26.5525 8.28858 25.6731 8.09279C24.7938 7.89699 23.8727 8.05802 23.1119 8.54054L20.0964 10.4578L20.3353 9.31491C20.4295 8.9017 20.441 8.47396 20.3694 8.05626C20.2977 7.63856 20.1442 7.23913 19.9177 6.88093C19.6913 6.52273 19.3962 6.21281 19.0496 5.96899C18.7029 5.72516 18.3115 5.55223 17.8979 5.46013C17.4842 5.36803 17.0564 5.35857 16.6391 5.43231C16.2217 5.50604 15.8231 5.66152 15.466 5.88979C15.1089 6.11807 14.8005 6.41465 14.5584 6.7625C14.3163 7.11034 14.1453 7.5026 14.0553 7.91673L12.4887 14.953L7.2433 13.7855C6.46105 13.6111 5.64189 13.7351 4.94621 14.133C4.25053 14.5309 3.72843 15.1742 3.48214 15.9368C3.23584 16.6995 3.28308 17.5266 3.61461 18.2563C3.94614 18.9859 4.53809 19.5655 5.27455 19.8817L2.04411 21.9357C1.28442 22.4199 0.747818 23.1857 0.552027 24.065C0.356236 24.9444 0.517246 25.8655 0.999734 26.6262L3.12289 29.9655C3.16252 30.0279 3.21404 30.0818 3.27451 30.1242C3.33498 30.1667 3.40322 30.1968 3.47533 30.2128C3.54744 30.2289 3.62201 30.2306 3.69477 30.2178C3.76754 30.2051 3.83708 30.1781 3.89942 30.1385L5.87567 28.8822V43.1217C5.87669 44.0226 6.23503 44.8863 6.87208 45.5233C7.50912 46.1603 8.37284 46.5186 9.27374 46.5196H30.2347C31.1356 46.5186 31.9993 46.1603 32.6363 45.5233C33.2733 44.8863 33.6316 44.0226 33.6326 43.1217V27.8883C33.6326 27.8144 33.6181 27.7412 33.5898 27.673C33.5615 27.6047 33.52 27.5427 33.4678 27.4905C33.4155 27.4382 33.3535 27.3968 33.2852 27.3686C33.217 27.3403 33.1438 27.3258 33.0699 27.3258ZM23.7155 9.49004C24.0784 9.25802 24.5 9.1346 24.9306 9.13435C25.0983 9.13444 25.2654 9.15289 25.429 9.18938C25.7207 9.25352 25.9967 9.37485 26.2411 9.54636C26.4855 9.71787 26.6936 9.93615 26.8531 10.1886L28.6745 13.0531L19.8151 18.6862L16.7742 13.9036L23.7155 9.49004ZM15.1534 8.16132C15.2749 7.61997 15.6065 7.14906 16.0752 6.8522C16.5439 6.55533 17.1114 6.45683 17.6527 6.57835C18.1941 6.69987 18.665 7.03147 18.9619 7.50019C19.2587 7.96892 19.3572 8.53637 19.2357 9.07773L18.7739 11.2869L13.7426 14.4977L15.1534 8.16132ZM15.8246 14.5073L18.8655 19.2898L13.7317 22.5538L10.691 17.7713L15.8246 14.5073ZM4.77889 18.048C4.55688 17.6989 4.44338 17.2917 4.45277 16.8781C4.46215 16.4644 4.59399 16.0628 4.83161 15.7241C5.06922 15.3854 5.40195 15.1247 5.78771 14.9751C6.17347 14.8255 6.59493 14.7937 6.9988 14.8836L11.5443 15.8955L6.49845 19.0585L6.08952 18.9674C5.82112 18.9084 5.56709 18.7968 5.34212 18.639C5.11715 18.4812 4.92572 18.2803 4.77889 18.048ZM3.77061 28.8873L1.94933 26.0227C1.62658 25.5138 1.51887 24.8977 1.6498 24.3095C1.78074 23.7213 2.13964 23.209 2.64777 22.8851L9.74155 18.3749L12.7823 23.1575L3.77061 28.8873ZM14.6787 45.3946H9.27374C8.67114 45.3939 8.09343 45.1542 7.66734 44.7281C7.24124 44.302 7.00155 43.7243 7.00086 43.1217V28.4508H14.679L14.6787 45.3946ZM21.8285 45.3946H15.8037V28.4508H21.8285V45.3946ZM32.5074 43.1217C32.5067 43.7243 32.2671 44.302 31.841 44.7281C31.415 45.1542 30.8373 45.3939 30.2347 45.3946H22.9535V28.4508H32.5074V43.1217ZM39.3597 22.2159L39.6288 20.647C39.6465 20.5436 39.6349 20.4373 39.5954 20.3401C39.5558 20.243 39.4899 20.1588 39.405 20.0971C39.3202 20.0354 39.2197 19.9987 39.1151 19.9911C39.0104 19.9835 38.9058 20.0053 38.8129 20.0541L37.404 20.7947L35.995 20.0541C35.9021 20.0052 35.7974 19.9833 35.6927 19.9909C35.588 19.9985 35.4875 20.0352 35.4026 20.0969C35.3177 20.1586 35.2517 20.2428 35.2122 20.34C35.1726 20.4372 35.1611 20.5436 35.1788 20.647L35.4479 22.2159L34.3081 23.3269C34.2329 23.4001 34.1797 23.493 34.1545 23.5949C34.1294 23.6968 34.1332 23.8037 34.1657 23.9035C34.1981 24.0034 34.2578 24.0922 34.3381 24.1598C34.4183 24.2275 34.5159 24.2713 34.6198 24.2864L36.1948 24.5154L36.8992 25.9427C36.9457 26.0368 37.0175 26.1161 37.1067 26.1716C37.1958 26.227 37.2987 26.2564 37.4037 26.2564C37.5087 26.2564 37.6116 26.227 37.7007 26.1716C37.7899 26.1161 37.8617 26.0368 37.9082 25.9427L38.6125 24.5154L40.1875 24.2864C40.2914 24.2713 40.389 24.2275 40.4692 24.1598C40.5495 24.0922 40.6092 24.0034 40.6417 23.9035C40.6741 23.8037 40.6779 23.6968 40.6528 23.5949C40.6276 23.493 40.5744 23.4001 40.4992 23.3269L39.3597 22.2159ZM38.1581 23.4441C38.0679 23.4572 37.9821 23.492 37.9083 23.5456C37.8346 23.5992 37.7749 23.67 37.7345 23.7518L37.4037 24.4223L37.0728 23.7518C37.0324 23.67 36.9728 23.5993 36.899 23.5457C36.8252 23.4921 36.7395 23.4572 36.6493 23.4441L35.9092 23.3365L36.4447 22.8146C36.5101 22.751 36.5589 22.6724 36.5871 22.5857C36.6153 22.4989 36.622 22.4066 36.6065 22.3167L36.4801 21.5797L37.142 21.9276C37.2227 21.9701 37.3125 21.9923 37.4037 21.9923C37.4949 21.9923 37.5847 21.9701 37.6655 21.9276L38.3272 21.5797L38.2009 22.3167C38.1854 22.4066 38.1921 22.4989 38.2203 22.5856C38.2484 22.6724 38.2973 22.751 38.3626 22.8146L38.8981 23.3365L38.1581 23.4441ZM45.8292 14.4655L44.2823 14.0896L43.715 12.6024C43.6777 12.5044 43.6136 12.4187 43.53 12.3551C43.4465 12.2915 43.3468 12.2526 43.2423 12.2428C43.1378 12.2329 43.0326 12.2525 42.9387 12.2993C42.8447 12.3461 42.7657 12.4182 42.7106 12.5076L41.8752 13.8625L40.2855 13.9425C40.1807 13.9478 40.0794 13.9823 39.9932 14.0421C39.9069 14.1019 39.8392 14.1847 39.7975 14.281C39.7558 14.3773 39.7419 14.4834 39.7574 14.5872C39.7729 14.691 39.8171 14.7884 39.885 14.8684L40.9154 16.0816L40.5004 17.6182C40.473 17.7195 40.4745 17.8265 40.5047 17.927C40.535 18.0275 40.5927 18.1175 40.6715 18.1869C40.7502 18.2563 40.8468 18.3023 40.9503 18.3197C41.0538 18.337 41.1601 18.3251 41.2572 18.2852L42.7291 17.6801L44.0629 18.5499C44.1508 18.6072 44.253 18.6388 44.3579 18.6411C44.4628 18.6434 44.5663 18.6163 44.6566 18.5629C44.7469 18.5094 44.8205 18.4318 44.869 18.3387C44.9175 18.2456 44.939 18.1408 44.9311 18.0362L44.8106 16.449L46.0493 15.4499C46.131 15.384 46.1926 15.2966 46.2272 15.1976C46.2618 15.0985 46.268 14.9917 46.2451 14.8893C46.2222 14.7869 46.1711 14.693 46.0976 14.6181C46.0241 14.5432 45.9312 14.4904 45.8292 14.4655ZM43.874 15.7593C43.803 15.8165 43.747 15.8902 43.7108 15.9739C43.6746 16.0576 43.6593 16.1488 43.6662 16.2398L43.7225 16.9854L43.0961 16.5767C43.0197 16.5269 42.9324 16.4964 42.8416 16.4878C42.7508 16.4793 42.6593 16.4929 42.575 16.5276L41.8835 16.8118L42.0785 16.0899C42.1022 16.0019 42.1043 15.9094 42.0844 15.8204C42.0644 15.7314 42.0232 15.6486 41.9642 15.5791L41.4801 15.0092L42.227 14.9717C42.318 14.9671 42.4067 14.9405 42.4852 14.8941C42.5637 14.8477 42.6297 14.7829 42.6776 14.7053L43.07 14.0688L43.3364 14.7674C43.3689 14.8526 43.4216 14.9286 43.4901 14.9889C43.5585 15.0492 43.6405 15.0919 43.7291 15.1134L44.4558 15.2901L43.874 15.7593ZM37.5566 5.32144L37.1414 6.85801C37.114 6.95934 37.1155 7.06632 37.1457 7.16684C37.1759 7.26737 37.2337 7.35743 37.3124 7.42684C37.3912 7.49625 37.4878 7.54225 37.5913 7.55962C37.6948 7.57699 37.8011 7.56504 37.8982 7.52513L39.3701 6.91998L40.7033 7.78988C40.7912 7.84723 40.8934 7.87884 40.9984 7.88113C41.1033 7.88343 41.2068 7.85631 41.2971 7.80286C41.3875 7.74941 41.461 7.67175 41.5095 7.57867C41.558 7.48559 41.5795 7.38079 41.5715 7.27613L41.4511 5.68894L42.6901 4.68976C42.7718 4.62388 42.8334 4.53647 42.868 4.43741C42.9026 4.33834 42.9088 4.23158 42.8859 4.12917C42.863 4.02677 42.8119 3.93281 42.7384 3.85792C42.6649 3.78303 42.5719 3.7302 42.47 3.70538L40.9231 3.32954L40.3559 1.84229C40.3185 1.74421 40.2544 1.65855 40.1708 1.595C40.0873 1.53146 39.9876 1.49256 39.8831 1.48271C39.7786 1.47286 39.6734 1.49244 39.5795 1.53926C39.4855 1.58607 39.4065 1.65824 39.3515 1.7476L38.5161 3.10248L36.9263 3.18235C36.8215 3.18761 36.7202 3.22209 36.634 3.2819C36.5477 3.34171 36.4799 3.42445 36.4383 3.52078C36.3966 3.61711 36.3827 3.72318 36.3981 3.82699C36.4136 3.9308 36.4578 4.02822 36.5257 4.10822L37.5566 5.32144ZM38.8683 4.21107C38.9593 4.20649 39.048 4.17984 39.1264 4.13341C39.2049 4.08698 39.271 4.02216 39.3188 3.94454L39.7113 3.30807L39.9777 4.00669C40.0102 4.0919 40.0629 4.16793 40.1313 4.22822C40.1998 4.28852 40.2818 4.33128 40.3704 4.35282L41.097 4.52935L40.515 4.99866C40.444 5.0559 40.388 5.12954 40.3518 5.21324C40.3156 5.29695 40.3002 5.3882 40.3071 5.47913L40.3634 6.22482L39.737 5.81616C39.6607 5.76634 39.5733 5.73584 39.4825 5.72728C39.3917 5.71873 39.3002 5.73237 39.2159 5.76704L38.5244 6.05129L38.7194 5.32941C38.7432 5.24136 38.7452 5.14885 38.7253 5.05984C38.7054 4.97083 38.6642 4.88799 38.6051 4.81848L38.1211 4.24848L38.8683 4.21107Z" fill="#8B2B13"/>
<path id="Vector_2" d="M27.781 22.297C26.5111 23.0962 25.8906 24.0646 25.8648 24.1055C25.7849 24.2315 25.7584 24.3841 25.7909 24.5296C25.8235 24.6752 25.9126 24.8019 26.0386 24.8818C26.1646 24.9617 26.3172 24.9883 26.4627 24.9557C26.6083 24.9231 26.735 24.834 26.8149 24.708C26.8993 24.5768 28.9345 21.5004 33.3643 22.5961C33.5085 22.6304 33.6605 22.6064 33.7871 22.5292C33.9137 22.452 34.0048 22.328 34.0404 22.184C34.076 22.0401 34.0534 21.8879 33.9774 21.7606C33.9014 21.6333 33.7782 21.5411 33.6346 21.5041C30.9091 20.8298 28.947 21.563 27.781 22.297ZM38.4548 16.3399C38.5926 16.3971 38.7475 16.3972 38.8854 16.3402C39.0232 16.2832 39.1328 16.1738 39.19 16.036C39.2472 15.8982 39.2473 15.7433 39.1903 15.6054C39.1333 15.4676 39.0239 15.358 38.8861 15.3008C34.8816 13.6389 31.9712 14.8834 30.2348 16.2203C29.0829 17.1161 28.1294 18.2413 27.4347 19.5246C27.3683 19.6582 27.3578 19.8127 27.4054 19.9541C27.4529 20.0955 27.5547 20.2122 27.6883 20.2786C27.8219 20.3449 27.9765 20.3555 28.1179 20.3079C28.2593 20.2604 28.376 20.1586 28.4423 20.0249C29.0622 18.8956 29.9056 17.9044 30.9211 17.1117C33.1043 15.4312 35.639 15.1713 38.4548 16.3399ZM32.134 12.1728C32.0881 12.3148 32.1005 12.4691 32.1684 12.6019C32.2362 12.7348 32.3541 12.8352 32.4961 12.8811C33.2705 13.1093 34.0736 13.2253 34.8809 13.2257C35.8216 13.2257 36.908 13.0559 37.8823 12.4784C39.1573 11.723 39.9748 10.4359 40.3136 8.65345C40.3277 8.58076 40.3273 8.506 40.3124 8.43347C40.2975 8.36094 40.2685 8.29206 40.2269 8.23078C40.1854 8.1695 40.1321 8.11702 40.0703 8.07636C40.0084 8.0357 39.9391 8.00766 39.8664 7.99384C39.7936 7.98002 39.7189 7.98069 39.6464 7.99582C39.5739 8.01096 39.5051 8.04025 39.444 8.08202C39.3829 8.12379 39.3306 8.17722 39.2902 8.23924C39.2497 8.30126 39.2219 8.37066 39.2084 8.44345C38.9329 9.89291 38.2954 10.9241 37.3136 11.5081C35.446 12.6194 32.8823 11.8238 32.8417 11.8109C32.6999 11.7651 32.5457 11.7775 32.413 11.8454C32.2803 11.9133 32.1799 12.031 32.134 12.1728ZM24.6986 26.7068C24.899 26.7068 25.0948 26.6474 25.2614 26.5361C25.4281 26.4248 25.5579 26.2666 25.6346 26.0815C25.7113 25.8964 25.7314 25.6927 25.6923 25.4961C25.6532 25.2996 25.5567 25.1191 25.4151 24.9774C25.2734 24.8357 25.0929 24.7392 24.8964 24.7001C24.6998 24.661 24.4961 24.6811 24.311 24.7578C24.1259 24.8344 23.9677 24.9643 23.8564 25.1309C23.745 25.2975 23.6856 25.4934 23.6856 25.6937C23.6859 25.9623 23.7928 26.2198 23.9827 26.4097C24.1726 26.5996 24.43 26.7064 24.6986 26.7068ZM24.6986 25.5818C24.7208 25.5818 24.7424 25.5883 24.7609 25.6006C24.7793 25.6129 24.7937 25.6304 24.8022 25.6509C24.8107 25.6714 24.8129 25.6939 24.8086 25.7157C24.8043 25.7374 24.7936 25.7574 24.7779 25.773C24.7622 25.7887 24.7423 25.7994 24.7205 25.8037C24.6988 25.808 24.6762 25.8058 24.6558 25.7973C24.6353 25.7888 24.6178 25.7744 24.6055 25.756C24.5932 25.7376 24.5866 25.7159 24.5867 25.6937C24.5868 25.6641 24.5986 25.6357 24.6196 25.6147C24.6406 25.5938 24.669 25.5819 24.6986 25.5818ZM32.6692 8.33179C32.8696 8.33179 33.0654 8.27237 33.232 8.16106C33.3986 8.04974 33.5285 7.89152 33.6052 7.70641C33.6818 7.5213 33.7019 7.3176 33.6628 7.12109C33.6237 6.92457 33.5272 6.74406 33.3856 6.60238C33.2439 6.4607 33.0634 6.36422 32.8669 6.32513C32.6703 6.28604 32.4666 6.3061 32.2815 6.38278C32.0964 6.45946 31.9382 6.5893 31.8269 6.7559C31.7156 6.9225 31.6562 7.11836 31.6562 7.31873C31.6565 7.58732 31.7633 7.84482 31.9532 8.03474C32.1431 8.22466 32.4006 8.33149 32.6692 8.33179ZM32.6692 7.20679C32.6914 7.20679 32.713 7.21336 32.7315 7.22568C32.7499 7.23799 32.7643 7.25549 32.7727 7.27597C32.7812 7.29645 32.7834 7.31898 32.7791 7.34071C32.7748 7.36245 32.7641 7.38241 32.7484 7.39807C32.7327 7.41374 32.7128 7.4244 32.691 7.42871C32.6693 7.43302 32.6467 7.43079 32.6263 7.4223C32.6058 7.4138 32.5883 7.39943 32.576 7.38099C32.5637 7.36256 32.5572 7.34089 32.5572 7.31873C32.5573 7.28907 32.5692 7.26067 32.5902 7.23971C32.6112 7.21874 32.6396 7.20691 32.6692 7.20679ZM46.948 7.55929C46.7476 7.55929 46.5518 7.61871 46.3852 7.73003C46.2186 7.84135 46.0887 7.99957 46.012 8.18469C45.9354 8.36981 45.9153 8.57351 45.9544 8.77003C45.9935 8.96654 46.09 9.14705 46.2317 9.28873C46.3734 9.4304 46.5539 9.52688 46.7504 9.56596C46.9469 9.60504 47.1506 9.58496 47.3357 9.50827C47.5209 9.43158 47.6791 9.30172 47.7904 9.13511C47.9017 8.9685 47.9611 8.77263 47.9611 8.57226C47.9608 8.30368 47.8539 8.04618 47.664 7.85628C47.4741 7.66637 47.2166 7.55956 46.948 7.55929ZM46.948 8.68429C46.9258 8.68429 46.9042 8.67772 46.8858 8.66541C46.8673 8.6531 46.853 8.6356 46.8445 8.61513C46.836 8.59466 46.8338 8.57213 46.8381 8.5504C46.8424 8.52867 46.8531 8.50871 46.8688 8.49304C46.8844 8.47737 46.9044 8.4667 46.9261 8.46238C46.9479 8.45806 46.9704 8.46028 46.9909 8.46875C47.0113 8.47723 47.0288 8.49159 47.0411 8.51002C47.0535 8.52844 47.06 8.5501 47.06 8.57226C47.0599 8.60193 47.0481 8.63036 47.0271 8.65134C47.0061 8.67232 46.9777 8.68417 46.948 8.68429ZM24.2839 21.0025C24.2839 20.8021 24.2245 20.6062 24.1132 20.4396C24.0018 20.273 23.8436 20.1431 23.6584 20.0665C23.4733 19.9898 23.2696 19.9698 23.073 20.0089C22.8765 20.0481 22.696 20.1446 22.5543 20.2863C22.4127 20.4281 22.3162 20.6086 22.2772 20.8052C22.2382 21.0017 22.2583 21.2054 22.3351 21.3905C22.4119 21.5757 22.5418 21.7338 22.7085 21.8451C22.8751 21.9563 23.071 22.0156 23.2714 22.0155C23.5399 22.0151 23.7973 21.9082 23.9871 21.7183C24.1769 21.5284 24.2837 21.271 24.2839 21.0025ZM23.2714 21.115C23.2493 21.115 23.2276 21.1085 23.2092 21.0962C23.1908 21.0839 23.1764 21.0664 23.1679 21.046C23.1594 21.0255 23.1571 21.003 23.1614 20.9813C23.1657 20.9596 23.1763 20.9396 23.1919 20.9239C23.2075 20.9082 23.2275 20.8975 23.2492 20.8931C23.2709 20.8887 23.2934 20.8909 23.3139 20.8993C23.3344 20.9077 23.3519 20.922 23.3643 20.9404C23.3766 20.9587 23.3833 20.9803 23.3834 21.0025C23.3833 21.0322 23.3714 21.0607 23.3503 21.0817C23.3292 21.1027 23.3007 21.1145 23.271 21.1145L23.2714 21.115ZM45.2798 21.6386C45.0794 21.6386 44.8836 21.698 44.717 21.8093C44.5504 21.9206 44.4205 22.0788 44.3439 22.264C44.2672 22.4491 44.2471 22.6528 44.2862 22.8493C44.3253 23.0458 44.4218 23.2263 44.5635 23.368C44.7051 23.5097 44.8857 23.6061 45.0822 23.6452C45.2787 23.6843 45.4824 23.6643 45.6675 23.5876C45.8526 23.5109 46.0108 23.3811 46.1221 23.2145C46.2335 23.0479 46.2929 22.852 46.2929 22.6516C46.2926 22.383 46.1857 22.1255 45.9958 21.9356C45.8059 21.7457 45.5484 21.6389 45.2798 21.6386ZM45.2798 22.7636C45.2577 22.7636 45.236 22.757 45.2176 22.7447C45.1993 22.7323 45.1849 22.7149 45.1765 22.6944C45.168 22.6739 45.1658 22.6514 45.1701 22.6297C45.1745 22.608 45.1851 22.5881 45.2008 22.5724C45.2164 22.5568 45.2364 22.5462 45.2581 22.5418C45.2798 22.5375 45.3023 22.5397 45.3228 22.5482C45.3432 22.5567 45.3607 22.571 45.373 22.5895C45.3853 22.6079 45.3918 22.6295 45.3918 22.6516C45.3917 22.6813 45.3798 22.7097 45.3589 22.7307C45.3379 22.7516 45.3095 22.7634 45.2798 22.7636Z" fill="#8B2B13"/>
</g>
</g>
</svg>
