<svg width="36" height="35" viewBox="0 0 36 35" fill="none" xmlns="http://www.w3.org/2000/svg">
<g id="ep:document-copy">
<path id="Vector" d="M11.1094 30.625H30.7969V10.9375H11.1094L11.1094 30.625ZM8.92188 31.7188L8.92188 9.84375C8.92188 9.55367 9.03711 9.27547 9.24223 9.07035C9.44734 8.86523 9.72554 8.75 10.0156 8.75L31.8906 8.75C32.1807 8.75 32.4589 8.86523 32.664 9.07035C32.8691 9.27547 32.9844 9.55367 32.9844 9.84375V31.7188C32.9844 32.0088 32.8691 32.287 32.664 32.4921C32.4589 32.6973 32.1807 32.8125 31.8906 32.8125H10.0156C9.72554 32.8125 9.44734 32.6973 9.24223 32.4921C9.03711 32.287 8.92188 32.0088 8.92188 31.7188ZM3.45313 2.1875H27.5156C27.8057 2.1875 28.0839 2.30273 28.289 2.50785C28.4941 2.71297 28.6094 2.99117 28.6094 3.28125L28.6094 6.5625H26.4219V4.375H4.54688L4.54688 21.875H6.73438V24.0625H3.45313C3.16304 24.0625 2.88484 23.9473 2.67973 23.7421C2.47461 23.537 2.35938 23.2588 2.35938 22.9688L2.35938 3.28125C2.35938 2.99117 2.47461 2.71297 2.67973 2.50785C2.88484 2.30273 3.16304 2.1875 3.45313 2.1875ZM23.1406 26.25H23.9023H24.5757H25.3281H23.1406ZM16.5781 26.25H17.4566H18.2578H18.7656H16.5781Z" fill="#8B2B13"/>
</g>
</svg>
