<svg width="28" height="28" viewBox="0 0 28 28" fill="none" xmlns="http://www.w3.org/2000/svg">
<g id="Group 1171283515">
<g id="Group 1171283577">
<g id="Group 1171283515_2">
<path id="Vector" fill-rule="evenodd" clip-rule="evenodd" d="M27.0192 12.811L27.0053 12.9953L26.9903 13.1793L26.9741 13.363L26.9569 13.5465L26.9386 13.7297L26.9194 13.9127L26.8991 14.0954L26.8778 14.2779L26.8555 14.4603L26.8323 14.6424L26.8081 14.8244L26.7829 15.0063L26.7567 15.1881L26.7296 15.3698L26.7014 15.5514L26.6722 15.7329L26.642 15.9144L26.6107 16.0958L26.5783 16.2772L26.5448 16.4585L26.51 16.6398L26.4741 16.8211L26.4369 17.0024L26.3984 17.1836L26.3585 17.3648L26.3172 17.5459L26.2744 17.727L26.2301 17.908L26.1842 18.089L26.1367 18.2697L26.0875 18.4504L26.0365 18.6309L25.9837 18.8111L25.9289 18.9911L25.8723 19.1709L25.8136 19.3503L25.7528 19.5293L25.6899 19.7079L25.6249 19.886L25.5575 20.0636L25.4879 20.2406L25.416 20.417L25.3416 20.5927L25.2648 20.7676L25.1855 20.9417L25.1037 21.1148L25.0194 21.287L24.9325 21.4582L24.8429 21.6283L24.7508 21.7972L24.656 21.9649L24.5585 22.1313L24.4584 22.2963L24.3556 22.4599L24.2501 22.622L24.142 22.7824L24.0311 22.9412L23.9175 23.0983L23.8012 23.2536L23.6823 23.407L23.5607 23.5584L23.4364 23.7078L23.3094 23.8551L23.1798 24.0002L23.0476 24.1431L22.9128 24.2837L22.7755 24.4218L22.6356 24.5576L22.4932 24.6907L22.3484 24.8213L22.2011 24.9492L22.0515 25.0745L21.8996 25.1969L21.7453 25.3165L21.5888 25.4332L21.4302 25.5469L21.2694 25.6576L21.1066 25.7653L20.9418 25.87L20.775 25.9714L20.6064 26.0697L20.4359 26.1648L20.2638 26.2566L20.09 26.3452L19.9146 26.4304L19.7376 26.5123L19.5593 26.5909L19.3795 26.666L19.1985 26.7378L19.0162 26.806L18.8328 26.8709L18.6483 26.9322L18.4628 26.99L18.2764 27.0443L18.0891 27.095L17.901 27.1422L17.7122 27.1858L17.5228 27.2258L17.3328 27.2622L17.1424 27.2951L16.9515 27.3243L16.7604 27.3499L16.569 27.3719L16.3774 27.3903L16.1858 27.4051L15.9941 27.4163L15.8025 27.4239L15.6111 27.428L15.4199 27.4286L15.229 27.4256L15.0384 27.4191L14.8484 27.4092L14.6588 27.3959L14.4699 27.3791L14.2816 27.359L14.0941 27.3356L13.9075 27.3089L13.7217 27.2789L13.5368 27.2458L13.353 27.2095L13.1703 27.1701L12.9887 27.1277L12.8083 27.0824L12.6293 27.0341L12.4515 26.983L12.2751 26.9291L12.1001 26.8724L11.9267 26.8131L11.7547 26.7513L11.5843 26.6869L11.4156 26.62L11.2485 26.5508L11.0831 26.4793L10.9194 26.4055L10.7575 26.3296L10.5973 26.2516L10.439 26.1715L10.2825 26.0896L10.1279 26.0057L9.97517 25.9201L9.82433 25.8327L9.67541 25.7436L9.52842 25.653L9.38337 25.5609L9.24026 25.4673L9.0991 25.3723L8.9599 25.2761L8.82265 25.1786L8.68736 25.0799L8.55402 24.9801L8.42263 24.8793L8.29318 24.7775L8.16566 24.6749L8.04006 24.5713L7.91638 24.467L7.79458 24.3619L7.67467 24.2561L7.55663 24.1498L7.44043 24.0428L7.32606 23.9354L7.21349 23.8274L7.10271 23.719L6.99369 23.6103L6.88641 23.5012L6.78085 23.3919L6.67697 23.2822L6.57476 23.1724L6.47419 23.0624L6.37522 22.9522L6.27784 22.842L6.18201 22.7316L6.0877 22.6212L5.99488 22.5108L5.90353 22.4004L5.8136 22.2901L5.72505 22.1798L5.63785 22.0697L5.55196 21.9597L5.46734 21.8499L5.38394 21.7403L5.30172 21.6309L5.22062 21.5218L5.14061 21.413L5.06164 21.3046L4.98364 21.1965L4.90658 21.0887L4.83041 20.9814L4.75506 20.8744L4.68049 20.7679L4.60664 20.6619L4.53347 20.5563L4.46091 20.4511L4.38891 20.3464L4.31743 20.2423L4.24641 20.1385L4.1758 20.0353L4.10555 19.9326L4.03561 19.8303L3.96593 19.7285L3.89647 19.6271L3.82719 19.5261L3.75804 19.4256L3.68898 19.3255L3.61997 19.2257L3.55099 19.1263L3.482 19.0272L3.41296 18.9283L3.34386 18.8298L3.27467 18.7314L3.20538 18.6333L3.13596 18.5352L3.0664 18.4373L2.9967 18.3394L2.92685 18.2415L2.85685 18.1436L2.78671 18.0457L2.71643 17.9475L2.64602 17.8493L2.57551 17.7507L2.5049 17.6519L2.43424 17.5528L2.36353 17.4533L2.29283 17.3534L2.22216 17.253L2.15157 17.152L2.0811 17.0505L2.01081 16.9484L1.94074 16.8456L1.87094 16.7421L1.80147 16.6379L1.7324 16.5329L1.66379 16.4271L1.59569 16.3204L1.52818 16.2128L1.46132 16.1044L1.39519 15.995L1.32985 15.8846L1.26538 15.7733L1.20185 15.6609L1.13934 15.5476L1.07792 15.4332L1.01767 15.3178L0.958665 15.2014L0.900979 15.084L0.84469 14.9655L0.789874 14.846L0.736605 14.7255L0.684959 14.604L0.635008 14.4814L0.586826 14.358L0.540482 14.2335L0.496046 14.1082L0.453586 13.9819L0.413167 13.8548L0.374853 13.7268L0.338704 13.5981L0.30478 13.4686L0.273136 13.3383L0.243825 13.2074L0.216895 13.0758L0.19239 12.9437L0.170349 12.811L0.150806 12.6778L0.133792 12.5442L0.119333 12.4102L0.107448 12.2758L0.0981565 12.1412L0.0914693 12.0063L0.087395 11.8713L0.0859375 11.7361L0.0870967 11.6009L0.0908686 11.4657L0.0972452 11.3305L0.106215 11.1953L0.117763 11.0604L0.13187 10.9256L0.148515 10.7911L0.167673 10.6568L0.189316 10.5229L0.213415 10.3894L0.239936 10.2562L0.268845 10.1236L0.300105 9.99145L0.333676 9.85983L0.369519 9.7288L0.407591 9.59837L0.447849 9.46858L0.49025 9.33946L0.534749 9.21104L0.581299 9.08335L0.629856 8.95641L0.680373 8.83023L0.732804 8.70485L0.787103 8.58029L0.843226 8.45655L0.901127 8.33365L0.960762 8.21162L1.02209 8.09046L1.08506 7.97018L1.14965 7.8508L1.2158 7.73232L1.28348 7.61476L1.35265 7.49812L1.42329 7.38242L1.49534 7.26765L1.5688 7.15383L1.64361 7.04096L1.71977 6.92905L1.79723 6.81811L1.87599 6.70815L1.95601 6.59916L2.03728 6.49118L2.11978 6.3842L2.20349 6.27822L2.28839 6.17327L2.37448 6.06935L2.46172 5.96647L2.5501 5.86463L2.6396 5.76385L2.73022 5.66413L2.82192 5.56547L2.91469 5.46789L3.00853 5.37139L3.1034 5.27597L3.19929 5.18164L3.29619 5.08841L3.39408 4.99627L3.49294 4.90524L3.59275 4.81532L3.69351 4.7265L3.79518 4.63879L3.89776 4.5522L4.00122 4.46671L4.10555 4.38234L4.21074 4.29907L4.31676 4.21692L4.42361 4.13587L4.53125 4.05592L4.63969 3.97708L4.74889 3.89932L4.85885 3.82266L4.96955 3.74709L5.08097 3.67259L5.1931 3.59916L5.30593 3.52679L5.41944 3.45548L5.53361 3.38521L5.64843 3.31597L5.76389 3.24775L5.87996 3.18052L5.99664 3.11427L6.11391 3.04898L6.23175 2.98462L6.35015 2.92117L6.4691 2.8586L6.58858 2.79689L6.70859 2.73601L6.82912 2.67593L6.95016 2.61662L7.0717 2.55806L7.19373 2.5002L7.31626 2.44302L7.43928 2.3865L7.5628 2.3306L7.68681 2.27528L7.81131 2.22054L7.93632 2.16633L8.06184 2.11263L8.18789 2.05941L8.31446 2.00665L8.44157 1.95434L8.56924 1.90244L8.69749 1.85094L8.82632 1.79982L8.95576 1.74906L9.08582 1.69867L9.21654 1.64861L9.34792 1.59889L9.48 1.5495L9.61279 1.50044L9.74632 1.4517L9.88061 1.40329L10.0157 1.35521L10.1516 1.30747L10.2883 1.26007L10.4259 1.21303L10.5644 1.16637L10.7038 1.12008L10.8442 1.07421L10.9855 1.02876L11.1279 0.983755L11.2712 0.939223L11.4156 0.895188L11.561 0.851678L11.7076 0.808721L11.8552 0.766348L12.004 0.724589L12.1539 0.683478L12.305 0.643046L12.4573 0.60333L12.6107 0.564367L12.7654 0.526199L12.9214 0.48887L13.0785 0.452427L13.2369 0.416921L13.3966 0.382405L13.5575 0.348935L13.7197 0.31657L13.8832 0.285369L14.0479 0.255396L14.2139 0.226716L14.3812 0.199396L14.5497 0.173504L14.7194 0.149111L14.8904 0.126288L15.0625 0.105108L15.2358 0.085643L15.4103 0.0679687L15.5859 0.0521594L15.7626 0.03829L15.9403 0.0264357L16.119 0.0166715L16.2987 0.00907215L16.4794 0.00371166L16.6609 0.000663461L16.8433 0L17.0264 0.00179256L17.2103 0.00611109L17.3948 0.013024L17.5799 0.0225979L17.7655 0.0348977L17.9516 0.049986L18.1381 0.0679235L18.3249 0.0887706L18.512 0.112587L18.6993 0.139431L18.8866 0.169361L19.0739 0.202434L19.2611 0.238705L19.4481 0.278225L19.6349 0.321045L19.8212 0.367214L20.0071 0.416776L20.1924 0.469772L20.377 0.526242L20.5608 0.586218L20.7437 0.649733L20.9256 0.716812L21.1063 0.787479L21.2858 0.86175L21.464 0.93964L21.6407 1.02116L21.8159 1.1063L21.9894 1.19508L22.161 1.28748L22.3308 1.38349L22.4986 1.4831L22.6643 1.58629L22.8278 1.69302L22.9889 1.80327L23.1477 1.917L23.3039 2.03418L23.4576 2.15475L23.6086 2.27867L23.7568 2.40588L23.9021 2.53632L24.0445 2.66993L24.1839 2.80665L24.3203 2.94639L24.4535 3.0891L24.5835 3.23468L24.7103 3.38307L24.8337 3.53417L24.9538 3.6879L25.0706 3.84417L25.1839 4.00289L25.2938 4.16397L25.4001 4.32731L25.503 4.49283L25.6024 4.66041L25.6983 4.82997L25.7906 5.0014L25.8794 5.17461L25.9647 5.34951L26.0465 5.52598L26.1248 5.70395L26.1996 5.8833L26.271 6.06395L26.3389 6.24579L26.4035 6.42874L26.4647 6.61271L26.5226 6.7976L26.5772 6.98332L26.6287 7.16979L26.6769 7.35692L26.7221 7.54464L26.7643 7.73286L26.8034 7.92151L26.8397 8.11051L26.8731 8.2998L26.9038 8.48931L26.9318 8.67897L26.9572 8.86873L26.98 9.05854L27.0004 9.24833L27.0184 9.43807L27.0341 9.6277L27.0475 9.8172L27.0589 10.0065L27.0681 10.1956L27.0754 10.3845L27.0807 10.5731L27.0842 10.7614L27.0859 10.9494L27.0859 11.1371L27.0843 11.3245L27.0811 11.5115L27.0764 11.6982L27.0702 11.8845L27.0626 12.0705L27.0537 12.2561L27.0434 12.4414L27.0319 12.6263L27.0192 12.811Z" fill="#A65341" fill-opacity="0.1"/>
</g>
<path id="Show tab overview" d="M7.64005 19.134H9.28507V20.402C9.28507 22.1222 10.1422 23 11.8392 23H20.5318C22.2201 23 23.0859 22.1133 23.0859 20.402V11.4552C23.0859 9.74384 22.2201 8.86601 20.5318 8.86601H18.8868V7.58916C18.8868 5.8867 18.021 5 16.3327 5H7.64005C5.94308 5 5.08594 5.86897 5.08594 7.58916V16.5448C5.08594 18.2562 5.94308 19.134 7.64005 19.134ZM7.65737 18.0345C6.68767 18.0345 6.15953 17.5113 6.15953 16.4828V7.65123C6.15953 6.62266 6.68767 6.09951 7.65737 6.09951H16.3154C17.2678 6.09951 17.8132 6.62266 17.8132 7.65123V8.86601H11.8392C10.1422 8.86601 9.28507 9.73498 9.28507 11.4552V18.0345H7.65737ZM11.8565 21.9005C10.8868 21.9005 10.3587 21.3685 10.3587 20.3488V11.5084C10.3587 10.4887 10.8868 9.95665 11.8565 9.95665H20.5145C21.4669 9.95665 22.0123 10.4887 22.0123 11.5084V20.3488C22.0123 21.3685 21.4669 21.9005 20.5145 21.9005H11.8565Z" fill="#5796CE"/>
</g>
</g>
</svg>
