<svg width="46" height="46" viewBox="0 0 46 46" fill="none" xmlns="http://www.w3.org/2000/svg">
<g id="Group">
<path id="Vector" d="M13.0155 11.3374C13.4329 10.9305 13.5803 10.3333 13.4002 9.77887C13.22 9.22453 12.7497 8.82805 12.1729 8.74423L10.6152 8.51783C10.5875 8.5138 10.5612 8.5031 10.5386 8.48665C10.516 8.4702 10.4977 8.44849 10.4853 8.4234L9.78864 7.01187C9.25308 5.88909 7.59736 5.88945 7.06207 7.01187L6.36542 8.4234C6.34027 8.47434 6.29175 8.50956 6.23542 8.51783L4.6778 8.74423C4.10092 8.82805 3.63067 9.22445 3.45054 9.77887C3.2704 10.3333 3.41783 10.9305 3.83525 11.3374L4.96234 12.4361C5.00303 12.4758 5.02163 12.5329 5.01202 12.5889L4.7459 14.1403C4.64734 14.7149 4.87914 15.2846 5.35073 15.6272C5.82241 15.9699 6.43595 16.0142 6.95174 15.743L8.34503 15.0105C8.36981 14.9975 8.39738 14.9907 8.42535 14.9907C8.45333 14.9907 8.4809 14.9975 8.50567 15.0105L9.89888 15.7429C10.4128 16.0133 11.027 15.9708 11.4999 15.6271C11.9715 15.2846 12.2033 14.7148 12.1047 14.1402L11.8386 12.5889C11.829 12.5328 11.8476 12.4757 11.8882 12.436L13.0155 11.3374ZM10.9476 11.4711C10.7711 11.6431 10.6391 11.8555 10.5629 12.0899C10.4868 12.3244 10.4688 12.5738 10.5104 12.8167L10.7766 14.3681C10.7916 14.4555 10.7475 14.5081 10.7078 14.5369C10.6682 14.5656 10.6045 14.5912 10.526 14.55L9.13287 13.8176C8.91472 13.7028 8.67193 13.6429 8.42544 13.6429C8.17895 13.6429 7.93616 13.7028 7.71802 13.8176L6.32481 14.55C6.2462 14.5913 6.1825 14.5656 6.14297 14.5369C6.10335 14.5081 6.05924 14.4555 6.07424 14.3681L6.34036 12.8166C6.38202 12.5736 6.36398 12.3242 6.28781 12.0898C6.21163 11.8554 6.0796 11.643 5.90309 11.471L4.77591 10.3723C4.71239 10.3104 4.71715 10.2418 4.73225 10.1953C4.74734 10.1488 4.78382 10.0905 4.87159 10.0778L6.42921 9.85137C6.67314 9.81597 6.90481 9.72177 7.10423 9.5769C7.30365 9.43203 7.46484 9.24083 7.57391 9.01978L8.27055 7.60825C8.34045 7.47672 8.51017 7.47663 8.58015 7.60825L9.2768 9.01969C9.38585 9.24076 9.54704 9.43198 9.74646 9.57687C9.94588 9.72176 10.1776 9.81597 10.4215 9.85137L11.9792 10.0778C12.067 10.0905 12.1035 10.1488 12.1186 10.1953C12.1336 10.2418 12.1384 10.3104 12.0749 10.3723L10.9476 11.4711ZM3.83525 22.4049L4.96243 23.5036C5.00312 23.5433 5.02163 23.6004 5.01202 23.6564L4.7459 25.2079C4.64734 25.7824 4.87914 26.3521 5.35073 26.6948C5.82241 27.0374 6.43586 27.0817 6.95183 26.8105L8.34503 26.078C8.3698 26.065 8.39737 26.0582 8.42535 26.0582C8.45334 26.0582 8.48091 26.065 8.50567 26.078L9.89897 26.8105C10.1174 26.926 10.3607 26.9865 10.6078 26.9868C10.9286 26.9864 11.241 26.8841 11.5 26.6948C11.9716 26.3522 12.2034 25.7824 12.1048 25.2079L11.8387 23.6566C11.8339 23.629 11.836 23.6006 11.8446 23.574C11.8533 23.5474 11.8683 23.5233 11.8884 23.5037L13.0155 22.405C13.4329 21.9981 13.5803 21.401 13.4002 20.8466C13.22 20.2922 12.7498 19.8958 12.1729 19.8119L10.6152 19.5855C10.5875 19.5814 10.5612 19.5708 10.5386 19.5543C10.516 19.5378 10.4977 19.5161 10.4853 19.491L9.78864 18.0796C9.25308 16.9568 7.59736 16.9572 7.06207 18.0796L6.36542 19.4911C6.34027 19.5421 6.29175 19.5773 6.23542 19.5856L4.6778 19.812C4.10092 19.8958 3.63067 20.2923 3.45054 20.8467C3.27049 21.4009 3.41792 21.998 3.83525 22.4049ZM4.73234 21.263C4.74743 21.2164 4.78391 21.1583 4.87168 21.1455L6.4293 20.9191C6.67323 20.8837 6.9049 20.7895 7.10432 20.6446C7.30374 20.4998 7.46493 20.3086 7.574 20.0875L8.27064 18.6761C8.34054 18.5445 8.51026 18.5445 8.58024 18.6761L9.27689 20.0875C9.38594 20.3086 9.54713 20.4998 9.74655 20.6447C9.94597 20.7896 10.1776 20.8838 10.4216 20.9192L11.9792 21.1456C12.067 21.1584 12.1035 21.2166 12.1186 21.2631C12.1336 21.3097 12.1384 21.3781 12.0749 21.44L10.9478 22.5387C10.7713 22.7108 10.6392 22.9231 10.5631 23.1576C10.4869 23.392 10.4689 23.6414 10.5105 23.8844L10.7766 25.4358C10.7917 25.5232 10.7475 25.5759 10.7079 25.6046C10.6683 25.6334 10.6046 25.659 10.5262 25.6177L9.13287 24.8853C8.91471 24.7705 8.67193 24.7106 8.42544 24.7106C8.17896 24.7106 7.93618 24.7705 7.71802 24.8853L6.32481 25.6177C6.2462 25.659 6.1825 25.6334 6.14297 25.6046C6.10335 25.5759 6.05924 25.5232 6.07424 25.4358L6.34036 23.8843C6.38202 23.6414 6.364 23.392 6.28784 23.1576C6.21168 22.9231 6.07967 22.7108 5.90318 22.5387L4.776 21.44C4.71248 21.378 4.71715 21.3096 4.73234 21.263ZM13.0155 33.4725C13.9179 32.6163 13.4058 31.0416 12.1729 30.8793L10.6152 30.653C10.5875 30.649 10.5612 30.6383 10.5386 30.6218C10.516 30.6054 10.4977 30.5837 10.4853 30.5586L9.78864 29.1471C9.25308 28.0243 7.59736 28.0247 7.06207 29.1471L6.36542 30.5586C6.34027 30.6095 6.29175 30.6448 6.23542 30.653L4.6778 30.8793C3.44452 31.0417 2.93322 32.6166 3.83525 33.4725L4.96234 34.5712C5.00303 34.6109 5.02163 34.668 5.01202 34.724L4.7459 36.2754C4.64734 36.85 4.87914 37.4197 5.35073 37.7623C5.82241 38.1049 6.43586 38.1493 6.95183 37.8781L8.34503 37.1456C8.3698 37.1325 8.39737 37.1257 8.42535 37.1257C8.45334 37.1257 8.48091 37.1325 8.50567 37.1456L9.89897 37.8781C10.4129 38.1485 11.0271 38.106 11.5 37.7623C11.9716 37.4198 12.2034 36.85 12.1048 36.2754L11.8387 34.7241C11.8291 34.668 11.8477 34.6109 11.8883 34.5712L13.0155 33.4725ZM10.9476 33.6063C10.7711 33.7783 10.6391 33.9907 10.5629 34.2252C10.4868 34.4596 10.4688 34.709 10.5104 34.9519L10.7766 36.5033C10.7916 36.5907 10.7475 36.6433 10.7078 36.6721C10.6682 36.7008 10.6045 36.7264 10.5261 36.6852L9.13278 35.9527C8.91462 35.838 8.67184 35.7781 8.42535 35.7781C8.17887 35.7781 7.93609 35.838 7.71793 35.9527L6.32472 36.6852C6.24611 36.7264 6.18241 36.7008 6.14288 36.6721C6.10326 36.6433 6.05915 36.5907 6.07415 36.5033L6.34027 34.9518C6.38193 34.7088 6.36389 34.4594 6.28772 34.225C6.21154 33.9906 6.07951 33.7782 5.903 33.6062L4.77582 32.5075C4.7123 32.4456 4.71706 32.377 4.73216 32.3305C4.74725 32.2839 4.78373 32.2257 4.8715 32.213L6.42912 31.9867C6.67305 31.9513 6.90472 31.8571 7.10414 31.7122C7.30356 31.5673 7.46475 31.3761 7.57382 31.1551L8.27046 29.7435C8.34036 29.612 8.51008 29.6119 8.58007 29.7435L9.27671 31.155C9.38576 31.376 9.54695 31.5673 9.74637 31.7122C9.94579 31.857 10.1775 31.9513 10.4214 31.9867L11.979 32.213C12.0668 32.2257 12.1033 32.284 12.1184 32.3305C12.1335 32.377 12.1382 32.4456 12.0747 32.5075L10.9476 33.6063ZM16.6749 24.4945H20.29C21.1809 24.4669 21.1803 23.1742 20.29 23.1469H16.6749C15.784 23.1745 15.7846 24.4672 16.6749 24.4945ZM20.2901 35.4854C21.181 35.4579 21.1804 34.1651 20.2901 34.1378H16.675C15.7841 34.1654 15.7847 35.4581 16.675 35.4854H20.2901Z" fill="#8B2B13"/>
<path id="Vector_2" d="M45.9319 40.0707L45.113 37.0847C44.9342 36.4324 44.4313 35.9559 43.8259 35.7766C44.5733 34.4399 44.7758 32.8596 44.3575 31.3343L43.0624 26.6116C43.0151 26.4392 42.9013 26.2927 42.746 26.2042C42.5908 26.1157 42.4067 26.0926 42.2343 26.1398C42.062 26.1871 41.9154 26.3009 41.827 26.4562C41.7385 26.6115 41.7153 26.7955 41.7626 26.9679L43.0578 31.6906C43.4755 33.2134 43.0909 34.8068 42.0323 35.9735L30.1182 39.241C27.6095 38.5563 25.302 36.4097 25.279 36.3881C25.2626 36.3726 25.2454 36.358 25.2275 36.3442C24.2269 35.5753 23.5121 34.5282 23.1602 33.3158L22.0919 29.6339C22.0573 29.5139 22.0572 29.3865 22.0916 29.2664C22.126 29.1463 22.1935 29.0383 22.2864 28.9548C22.5883 28.6858 23.1228 28.2267 23.8796 27.5865L24.8857 31.255C24.9829 31.6169 25.3645 31.8255 25.7138 31.7267C25.8861 31.6795 26.0326 31.5657 26.1211 31.4104C26.2095 31.2551 26.2327 31.0711 26.1854 30.8987L24.532 24.8696L24.532 24.8692L22.1629 16.2304C21.9437 15.4313 22.4156 14.6028 23.2148 14.3837C24.0138 14.1643 24.8424 14.6364 25.0614 15.4355L27.0611 22.7273L27.8864 25.737C27.9836 26.0989 28.3652 26.3074 28.7144 26.2087C28.8868 26.1615 29.0333 26.0477 29.1218 25.8924C29.2102 25.7371 29.2334 25.5531 29.1861 25.3807L28.3611 22.3722C28.1459 21.5755 28.6181 20.7498 29.4141 20.5315C30.2133 20.3124 31.0416 20.7843 31.2606 21.5832L31.4662 22.3329L32.1904 24.9741C32.2876 25.336 32.6693 25.5445 33.0185 25.4458C33.1908 25.3985 33.3373 25.2847 33.4258 25.1294C33.5143 24.9742 33.5374 24.7901 33.4902 24.6178L32.7697 21.9905C32.3638 20.0675 35.1003 19.3702 35.6785 21.2404L35.9826 22.3494L36.6032 24.6122C36.7004 24.9741 37.082 25.1826 37.4312 25.0839C37.6036 25.0366 37.7501 24.9228 37.8386 24.7676C37.927 24.6123 37.9502 24.4282 37.9029 24.2559L37.2824 21.9931C37.0632 21.194 37.535 20.3656 38.3341 20.1465C38.5243 20.0938 38.7231 20.0793 38.9189 20.1039C39.1148 20.1286 39.3038 20.1918 39.4751 20.2899C39.6469 20.3871 39.7977 20.5175 39.9188 20.6734C40.0399 20.8293 40.1288 21.0077 40.1805 21.1982L40.9487 23.9995C40.9717 24.0852 41.0115 24.1655 41.0657 24.2358C41.1199 24.3062 41.1874 24.3651 41.2644 24.4092C41.3415 24.4533 41.4264 24.4818 41.5145 24.493C41.6026 24.5042 41.692 24.4979 41.7776 24.4744C41.8632 24.4509 41.9433 24.4108 42.0134 24.3562C42.0834 24.3017 42.142 24.2339 42.1858 24.1566C42.2295 24.0794 42.2576 23.9942 42.2683 23.9061C42.2791 23.818 42.2723 23.7286 42.2484 23.6431L41.4802 20.8419C41.2789 20.1077 40.8037 19.4958 40.1421 19.119C39.4807 18.7421 38.7117 18.6454 37.9777 18.8469C37.3744 19.0116 36.8425 19.3712 36.4647 19.8695C35.776 19.0012 34.6101 18.5779 33.4756 18.8891C32.7973 19.0751 32.2448 19.4849 31.8774 20.0177C31.0132 19.0693 29.4198 18.8325 28.3005 19.5648V4.62694C28.3005 2.07566 26.225 0 23.6737 0H4.62694C2.07565 0 0 2.07566 0 4.62694V14.9044C0.027582 15.7953 1.32034 15.7947 1.34765 14.9044V4.62694C1.34765 2.81875 2.81875 1.34765 4.62694 1.34765H7.38622L7.85466 2.66117C8.11107 3.38018 8.79631 3.86327 9.55962 3.86327H18.7407C19.5041 3.86327 20.1894 3.38018 20.4458 2.66117L20.9142 1.34765H23.6735C25.4817 1.34765 26.9528 2.81875 26.9528 4.62694V17.2372L26.3609 15.0789C25.9452 13.5631 24.3736 12.6681 22.8582 13.0838C21.3424 13.4994 20.4474 15.0708 20.8631 16.5866L21.9744 20.639H16.6759C15.785 20.6666 15.7856 21.9594 16.6759 21.9867H22.344L23.4869 26.1543C22.465 27.0154 21.7604 27.6183 21.3898 27.9487C20.8154 28.4606 20.5831 29.2695 20.7978 30.0094L21.268 31.63H16.6759C15.7851 31.6576 15.7857 32.9504 16.6759 32.9777H21.6591L21.8662 33.6913C22.2955 35.1707 23.1646 36.45 24.3807 37.3929C24.5608 37.5594 25.5618 38.4624 26.953 39.2962V39.5533H1.34765V18.0468C1.32007 17.1559 0.0273124 17.1565 0 18.0468V41.3729C0 43.9242 2.07556 45.9999 4.62685 45.9999H23.6735C26.2248 45.9999 28.3004 43.9242 28.3004 41.3729V40.0065C28.4432 40.0712 28.5881 40.1333 28.7348 40.1923C28.495 40.6124 28.4151 41.1239 28.5528 41.6261L29.3717 44.6121C29.6434 45.6234 30.713 46.2082 31.6897 45.9323L44.6115 42.3886C44.8507 42.3237 45.0746 42.2121 45.2703 42.0601C45.4661 41.908 45.6297 41.7187 45.7517 41.503C45.875 41.2881 45.9544 41.0508 45.9854 40.8049C46.0163 40.559 45.9981 40.3095 45.9319 40.0707ZM19.1765 2.20844C19.1443 2.29826 19.0852 2.37596 19.0072 2.43093C18.9292 2.48591 18.8361 2.51548 18.7407 2.51562H9.55962C9.46421 2.51548 9.37116 2.48591 9.29318 2.43093C9.21519 2.37596 9.15607 2.29826 9.12388 2.20844L8.81697 1.34765H19.4835L19.1765 2.20844ZM23.6735 44.6522H4.62694C2.81875 44.6522 1.34765 43.1811 1.34765 41.3729V40.901H26.9528V41.3729C26.9528 43.1811 25.4817 44.6522 23.6735 44.6522ZM44.5808 40.8361C44.546 40.8977 44.4992 40.9518 44.4434 40.9952C44.3875 41.0386 44.3235 41.0705 44.2552 41.089L31.3334 44.6327C31.1956 44.6703 31.0485 44.6517 30.9244 44.581C30.8004 44.5104 30.7094 44.3933 30.6714 44.2557L29.8526 41.2698C29.8149 41.132 29.8335 40.9849 29.9042 40.8608C29.9748 40.7367 30.0919 40.6457 30.2296 40.6077L43.1514 37.0641C43.4304 36.9853 43.7357 37.1524 43.8134 37.4411L44.6322 40.4271C44.6511 40.4953 44.6563 40.5665 44.6474 40.6367C44.6386 40.707 44.616 40.7747 44.5808 40.8361Z" fill="#8B2B13"/>
</g>
</svg>
