<svg width="31" height="30" viewBox="0 0 31 30" fill="none" xmlns="http://www.w3.org/2000/svg">
<g id="verify">
<path id="Vector" d="M14.2797 3.08438C15.1765 2.31758 16.6451 2.31758 17.5549 3.08438L19.6084 4.85194C19.9983 5.18986 20.7261 5.46279 21.246 5.46279H23.4554C24.8331 5.46279 25.9638 6.59351 25.9638 7.97116V10.1806C25.9638 10.6875 26.2367 11.4283 26.5746 11.8182L28.3422 13.8717C29.109 14.7685 29.109 16.2371 28.3422 17.1469L26.5746 19.2004C26.2367 19.5903 25.9638 20.3181 25.9638 20.8379V23.0474C25.9638 24.425 24.8331 25.5558 23.4554 25.5558H21.246C20.7391 25.5558 19.9983 25.8287 19.6084 26.1666L17.5549 27.9342C16.6581 28.701 15.1895 28.701 14.2797 27.9342L12.2262 26.1666C11.8363 25.8287 11.1085 25.5558 10.5886 25.5558H8.34021C6.96255 25.5558 5.83183 24.425 5.83183 23.0474V20.8249C5.83183 20.3181 5.5589 19.5903 5.23398 19.2004L3.47942 17.1339C2.72561 16.2371 2.72561 14.7815 3.47942 13.8847L5.23398 11.8182C5.5589 11.4283 5.83183 10.7005 5.83183 10.1936V7.95816C5.83183 6.58051 6.96255 5.44979 8.34021 5.44979H10.5886C11.0955 5.44979 11.8363 5.17686 12.2262 4.83894L14.2797 3.08438Z" 
fill="#f84737" stroke="#206DB2" stroke-linecap="round" stroke-linejoin="round"/>
</g>
</svg>
