<svg xmlns="http://www.w3.org/2000/svg" width="73" height="78" fill="none"><path fill="#FFF5EC" fill-rule="evenodd" d="m59.951 45.413.023.444.016.445.009.445.001.446-.006.445-.013.446-.02.445-.027.445-.034.445-.041.444-.049.444-.055.442-.063.442-.069.441-.076.44-.083.438-.09.437-.097.436-.104.434-.11.432-.117.43-.124.429-.13.426-.137.424-.142.422-.15.42-.155.417-.162.415-.168.412-.173.409-.18.406-.185.404-.191.4-.197.398-.202.394-.207.392-.213.388-.219.385-.223.381-.228.378-.233.375-.238.37-.243.368-.248.364-.252.36-.257.357-.26.353-.266.35-.27.345-.274.341-.278.338-.282.333-.286.33-.29.325-.294.322-.298.317-.301.313-.305.309-.309.305-.312.3-.316.296-.319.292-.322.287-.326.283-.328.278-.332.274-.335.27-.338.264-.341.26-.344.256-.346.25-.35.247-.352.241-.354.237-.357.232-.36.227-.362.222-.364.218-.367.212-.369.208-.37.202-.374.198-.375.193-.377.187-.38.183-.38.177-.383.173-.384.167-.386.161-.388.157-.39.15-.39.146-.392.14-.394.135-.395.129-.396.123-.398.117-.398.112-.4.105-.4.1-.402.093-.403.088-.403.081-.404.075-.405.069-.405.062-.405.056-.406.05-.406.042-.406.037-.406.03-.406.023-.405.017-.406.01-.404.004-.405-.003-.403-.01-.403-.016-.402-.022-.4-.03-.4-.035-.398-.043-.397-.048-.395-.055-.394-.062-.392-.067-.39-.074-.388-.08-.386-.087-.384-.092-.382-.099-.379-.104-.377-.11-.374-.116-.371-.121-.369-.128-.366-.133-.362-.138-.36-.144-.357-.15-.353-.154-.35-.16-.346-.164-.343-.17-.34-.174-.336-.18-.332-.183-.329-.188-.325-.193-.32-.197-.317-.2-.314-.205-.309-.209-.305-.212-.301-.216-.297-.22-.293-.222-.29-.226-.284-.229-.281-.231-.277-.235-.272-.237-.27-.239-.264-.242-.26-.244-.257-.246-.253-.247-.249-.25-.244-.251-.241-.253-.238-.255-.233-.255-.23-.258-.225-.258-.223-.259-.218-.26-.216-.261-.211-.262-.208-.263-.205-.263-.201-.264-.198-.265-.195-.265-.192-.265-.188-.266-.185-.266-.182-.267-.18-.266-.176-.267-.173-.268-.17-.267-.168-.267-.164-.268-.162-.268-.16-.267-.156-.268-.154-.268-.151-.268-.149-.268-.146-.268-.144-.268-.141-.268-.14-.268-.136-.267-.134-.268-.132-.268-.13-.268-.128-.267-.125-.268-.123-.267-.122-.268-.119-.267-.117-.268-.115-.267-.113-.268-.111-.267-.11-.268-.107-.267-.105-.268-.104-.267-.101-.268-.1-.268-.098-.268-.096-.268-.095-.268-.092-.269-.09-.268-.09-.27-.087-.268-.085-.27-.083-.27-.081-.27-.08-.27-.078-.27-.076-.27-.074-.272-.072-.272-.07-.272-.068-.273-.067-.272-.064-.274-.063-.274-.06-.274-.06-.275-.056-.275-.054-.276-.053-.276-.05-.277L.47 48.5l-.046-.278-.044-.278-.042-.28-.04-.279-.037-.28-.035-.28-.032-.282-.03-.282-.027-.282-.026-.283-.022-.283-.02-.284-.018-.284-.015-.285-.012-.285-.01-.286-.007-.287-.005-.286L0 43.128v-.287l.003-.288.006-.289.008-.289.01-.29.013-.29.016-.29.018-.29.02-.291.023-.291.026-.292.028-.293.03-.293.033-.293.035-.293.038-.294.04-.295.042-.295.046-.295.047-.296.05-.296.053-.297.055-.297.057-.298.06-.298.063-.299.066-.299.068-.3.07-.299.074-.3.077-.3.079-.302.082-.3.085-.302.088-.302.091-.302.095-.302.097-.303.101-.302.104-.302.108-.303.111-.302.115-.302.118-.302.122-.301.126-.301.13-.3.133-.3.138-.3.141-.298.146-.298.15-.297.154-.295.158-.295.162-.293.167-.292.17-.29.176-.29.18-.286.183-.286.189-.283.192-.282.197-.28.201-.277.206-.276.21-.273.214-.27.219-.269.223-.265.227-.263.231-.26.236-.257.24-.255.244-.251.248-.249.252-.245.256-.242.26-.238.265-.236.268-.231.272-.228.276-.224.28-.22.283-.217.287-.212.291-.208.295-.204.298-.2.302-.195.305-.19.309-.185.312-.18.315-.176.319-.17.322-.166.324-.16.328-.154.33-.149.334-.143.336-.137.339-.131.341-.126.344-.12.346-.113.347-.107.35-.101.352-.095.354-.088.356-.082.357-.075.358-.07.36-.062.36-.056.362-.05.363-.043.363-.036.364-.03.365-.024.365-.018.365-.011.365-.005.366.001.365.008.365.013.365.02.364.024.364.03.363.037.362.042.362.047.361.052.36.057.359.062.358.067.357.071.356.076.354.08.354.084.352.089.351.092.35.095.349.1.348.103.346.106.345.109.344.112.343.115.342.118.34.12.34.124.34.126.337.128.337.13.337.132.335.135.335.136.334.139.334.14.333.142.333.144.332.146.332.148.332.149.331.15.332.153.331.155.331.156.332.158.331.16.332.16.331.164.332.166.332.167.331.17.333.171.332.174.332.177.333.178.332.182.333.184.333.187.332.19.333.192.332.195.333.2.331.201.332.206.331.209.33.213.33.216.33.22.328.225.327.228.326.232.324.237.324.24.321.246.32.25.319.254.316.258.314.264.311.268.31.273.306.278.304.283.3.287.298.292.294.298.29.302.288.307.283.312.28.317.274.322.271.326.267.332.261.336.258.34.252.346.247.35.242.355.237.36.231.363.226.368.22.372.215.376.208.38.203.385.196.388.19.392.184.395.177.4.171.402.164.406.158.409.15.412.145.415.137.417.13.42.123.424.116.425.109.428.102.43.094.431.088.434.08.436.073.437.066.438.06.44.05.44.045.442.037.443.03.444Z" clip-rule="evenodd"/><g stroke="#903D2A" stroke-linecap="round" stroke-linejoin="round" stroke-width="3"><path d="m25.488 36.5 7.33 7.361L47.51 29.14"/><path d="M32.697 7.452c2.099-1.795 5.536-1.795 7.665 0l4.806 4.137c.912.79 2.616 1.43 3.832 1.43h5.171c3.224 0 5.87 2.645 5.87 5.87v5.17c0 1.187.64 2.92 1.43 3.833l4.137 4.806c1.794 2.099 1.794 5.536 0 7.665l-4.137 4.806c-.79.912-1.43 2.615-1.43 3.832v5.17c0 3.225-2.646 5.871-5.87 5.871h-5.17c-1.187 0-2.92.64-3.833 1.43l-4.806 4.137c-2.099 1.794-5.536 1.794-7.665 0l-4.806-4.137c-.912-.79-2.616-1.43-3.832-1.43h-5.262c-3.225 0-5.87-2.646-5.87-5.87V48.97c0-1.187-.64-2.89-1.4-3.802l-4.106-4.837c-1.764-2.098-1.764-5.505 0-7.604l4.106-4.836c.76-.913 1.4-2.616 1.4-3.802v-5.232c0-3.224 2.645-5.87 5.87-5.87h5.262c1.186 0 2.92-.639 3.832-1.43l4.806-4.106Z"/></g></svg>