<svg width="16" height="15" viewBox="0 0 16 15" fill="none" xmlns="http://www.w3.org/2000/svg">
<path d="M0 2C0 0.895431 0.895431 0 2 0H13.2344C14.3389 0 15.2344 0.895431 15.2344 2V13C15.2344 14.1046 14.3389 15 13.2344 15H2C0.89543 15 0 14.1046 0 13V2Z" fill="#6E807E" fill-opacity="0.5"/>
<path d="M13.5859 7.5C13.5859 9.98528 10.9998 12 7.80957 12C4.61937 12 2.0332 9.98528 2.0332 7.5C2.0332 5.01472 4.61937 3 7.80957 3C10.9998 3 13.5859 5.01472 13.5859 7.5Z" fill="#DBDADA"/>
<ellipse cx="5.46094" cy="7.5" rx="1.14258" ry="1.125" fill="#6E807E" fill-opacity="0.5"/>
<ellipse cx="9.90234" cy="7.5" rx="1.14258" ry="1.125" fill="#6E807E" fill-opacity="0.5"/>
</svg>
